<svg width="24" height="24" viewBox="0 0 24 24" fill="none" xmlns="http://www.w3.org/2000/svg">
<circle cx="12" cy="12" r="12" fill="white"/>
<path d="M17.9655 5.41798L17.6187 3.45134C17.5681 3.16453 17.2946 2.973 17.0078 3.02359C16.721 3.07418 16.5294 3.3477 16.58 3.6345L16.7022 4.32782C15.2948 3.46529 13.6657 3 12 3C9.59602 3 7.33593 3.93618 5.63602 5.63602C3.93614 7.33593 3 9.59602 3 12C3 12.2912 3.23611 12.5273 3.52734 12.5273C3.81858 12.5273 4.05469 12.2912 4.05469 12C4.05469 7.61893 7.61893 4.05469 12 4.05469C13.4583 4.05469 14.885 4.45849 16.1204 5.20785L15.3878 5.33701C15.101 5.38757 14.9095 5.66108 14.9601 5.94792C15.0107 6.23473 15.2842 6.42626 15.571 6.37567L17.5377 6.02885C17.8245 5.9783 18.016 5.70478 17.9655 5.41798Z" fill="#1A913C"/>
<path d="M17.7458 10.6595L16.9221 10.4657C16.8295 10.1685 16.7102 9.88071 16.5651 9.60495L17.0108 8.88505C17.1396 8.677 17.1083 8.40763 16.9353 8.23459L15.7655 7.06473C15.5924 6.89169 15.3231 6.8604 15.115 6.98925L14.3951 7.43493C14.1193 7.28987 13.8315 7.17052 13.5344 7.07802L13.3405 6.25427C13.2845 6.01602 13.0719 5.84766 12.8272 5.84766H11.1728C10.9281 5.84766 10.7155 6.01602 10.6595 6.2542L10.4656 7.07795C10.1685 7.17048 9.88071 7.2898 9.60491 7.43486L8.88502 6.98918C8.67693 6.86037 8.40759 6.89162 8.23452 7.06466L7.0647 8.23452C6.89166 8.40756 6.8604 8.67689 6.98921 8.88498L7.43486 9.60487C7.28984 9.88068 7.17048 10.1685 7.07795 10.4656L6.2542 10.6594C6.01602 10.7155 5.84766 10.9281 5.84766 11.1728V12.8272C5.84766 13.0719 6.01602 13.2845 6.2542 13.3405L7.07795 13.5343C7.17048 13.8315 7.28984 14.1193 7.43486 14.3951L6.98921 15.1149C6.8604 15.323 6.89166 15.5924 7.0647 15.7654L8.23452 16.9353C8.40756 17.1083 8.67693 17.1396 8.88502 17.0108L9.60491 16.5651C9.88071 16.7101 10.1685 16.8295 10.4656 16.922L10.6595 17.7457C10.7155 17.984 10.9281 18.1523 11.1728 18.1523H12.8272C13.0719 18.1523 13.2845 17.984 13.3405 17.7458L13.5343 16.9221C13.8314 16.8295 14.1193 16.7102 14.3951 16.5651L15.1149 17.0108C15.323 17.1396 15.5924 17.1084 15.7654 16.9353L16.9353 15.7654C17.1083 15.5924 17.1396 15.3231 17.0108 15.115L16.5651 14.3951C16.7101 14.1193 16.8295 13.8315 16.922 13.5344L17.7458 13.3406C17.984 13.2845 18.1523 13.0719 18.1523 12.8273V11.1729C18.1523 10.9281 17.984 10.7155 17.7458 10.6595ZM12 14.4609C10.6409 14.4609 9.53906 13.3591 9.53906 12C9.53906 10.6409 10.6409 9.53906 12 9.53906C13.3591 9.53906 14.4609 10.6409 14.4609 12C14.4609 13.3591 13.3591 14.4609 12 14.4609Z" fill="#1A913C"/>
<path d="M6.03455 18.582L6.38133 20.5487C6.43192 20.8355 6.70543 21.027 6.99224 20.9764C7.27904 20.9258 7.47061 20.6523 7.42002 20.3655L7.29778 19.6722C8.70523 20.5347 10.3343 21 12 21C14.404 21 16.6641 20.0638 18.364 18.364C20.0639 16.6641 21 14.404 21 12C21 11.7088 20.7639 11.4727 20.4727 11.4727C20.1814 11.4727 19.9453 11.7088 19.9453 12C19.9453 16.3811 16.3811 19.9453 12 19.9453C10.5417 19.9453 9.11497 19.5415 7.87958 18.7922L8.61217 18.663C8.89897 18.6124 9.0905 18.3389 9.03991 18.0521C8.98932 17.7653 8.71584 17.5737 8.429 17.6243L6.46229 17.9711C6.17549 18.0217 5.98399 18.2952 6.03455 18.582Z" fill="#1A913C"/>
</svg>
