<svg width="195" height="30" viewBox="0 0 195 30" fill="none" xmlns="http://www.w3.org/2000/svg">
<g clip-path="url(#clip0_27_108)">
<mask id="mask0_27_108" style="mask-type:luminance" maskUnits="userSpaceOnUse" x="0" y="0" width="195" height="30">
<path d="M195 0H0V30H195V0Z" fill="white"/>
</mask>
<g mask="url(#mask0_27_108)">
<path d="M31.9757 11.1282L38.3694 7.39739L19.1836 3.69849L31.9757 11.1282Z" fill="url(#paint0_linear_27_108)"/>
<path d="M12.7937 7.42967L19.1857 3.69887L0 0L12.7937 7.42967Z" fill="url(#paint1_linear_27_108)"/>
<path d="M25.5945 22.3125L31.9866 18.5801L12.8008 14.8828L25.5945 22.3125Z" fill="url(#paint2_linear_27_108)"/>
<path d="M38.3686 7.39786L31.9845 18.5823L31.9766 11.1287L38.3686 7.39786Z" fill="#005CB9"/>
<path d="M31.9858 18.5808L25.6017 29.7669L25.5938 22.3132L31.9858 18.5808Z" fill="#758592"/>
<path d="M19.1851 3.69849L12.8009 14.883L12.793 7.42932L19.1851 3.69849Z" fill="#8A1E41"/>
<path d="M47.3021 26.6771H42.4961L41.6769 29.3646C41.6357 29.5052 41.5755 29.6074 41.4979 29.6714C41.4202 29.7352 41.284 29.7672 41.089 29.7672H38.633C38.4793 29.7672 38.3842 29.7256 38.3493 29.641C38.3145 29.5563 38.3113 29.4572 38.3383 29.3454L42.7037 16.0742C42.7734 15.8345 42.8542 15.6396 42.9446 15.4926C43.0348 15.344 43.141 15.2274 43.2599 15.1427C43.3787 15.058 43.5182 14.9989 43.6798 14.9621C43.8398 14.927 44.0268 14.9094 44.2359 14.9094H45.4957C45.7333 14.9094 45.9362 14.9206 46.1042 14.9414C46.2721 14.9621 46.4195 15.0148 46.5446 15.0996C46.6698 15.1842 46.7792 15.304 46.8695 15.459C46.9598 15.614 47.0485 15.8186 47.1325 16.0726L51.498 29.3438C51.5265 29.4285 51.5265 29.5212 51.498 29.6186C51.4695 29.7177 51.3791 29.7672 51.2254 29.7672H48.7282C48.5745 29.7672 48.4446 29.7496 48.34 29.7145C48.2354 29.6793 48.1609 29.5834 48.1197 29.4285L47.3021 26.6771ZM43.2519 24.0727H46.5478L45.7508 21.374L44.9744 18.3366H44.8492L44.0522 21.374L43.2519 24.0727Z" fill="white"/>
<path d="M59.3957 27.0795C60.0676 27.0795 60.6618 26.9981 61.1799 26.8367C61.6981 26.6753 62.1798 26.5091 62.6282 26.3398C62.8247 26.2551 62.9642 26.2375 63.0481 26.2871C63.1321 26.3366 63.2082 26.4389 63.2795 26.5938L63.9925 28.1181C64.0908 28.3163 64.1256 28.4648 64.0971 28.5623C64.0686 28.6613 63.9925 28.7461 63.8658 28.8163C63.11 29.2813 62.3161 29.5961 61.4826 29.7575C60.6507 29.9188 59.8283 30.0003 59.017 30.0003C57.8698 30.0003 56.8794 29.8277 56.0476 29.481C55.2141 29.1359 54.5296 28.6374 53.9909 27.9887C53.4521 27.34 53.0528 26.5459 52.7945 25.608C52.5346 24.6701 52.4062 23.6155 52.4062 22.4444C52.4062 21.2876 52.5711 20.2363 52.8991 19.2903C53.227 18.3445 53.6866 17.5344 54.2745 16.8569C54.8623 16.1795 55.5722 15.657 56.4057 15.2911C57.2375 14.9236 58.1582 14.7415 59.166 14.7415C59.879 14.7415 60.5794 14.8022 61.2655 14.922C61.9516 15.0419 62.6219 15.2847 63.2811 15.6522C63.4348 15.7369 63.5251 15.8216 63.5536 15.9063C63.5821 15.9909 63.5457 16.1539 63.449 16.3936L62.7978 17.8539C62.7281 18.0521 62.6536 18.1719 62.5775 18.2135C62.4999 18.255 62.3636 18.2422 62.1687 18.1703C61.6648 17.9866 61.1958 17.8491 60.7616 17.7581C60.3274 17.667 59.8442 17.6207 59.3134 17.6207C58.7397 17.6207 58.2327 17.7437 57.7922 17.9913C57.3517 18.239 56.9809 18.5777 56.6798 19.0075C56.3787 19.4389 56.1522 19.9455 55.9968 20.5319C55.8432 21.1182 55.7656 21.7557 55.7656 22.4476C55.7656 23.1394 55.8257 23.7673 55.9446 24.3313C56.0634 24.8954 56.2663 25.3827 56.5531 25.7917C56.8399 26.2008 57.2138 26.5187 57.6765 26.744C58.136 26.9661 58.7096 27.0795 59.3957 27.0795Z" fill="white"/>
<path d="M74.9683 19.8612L73.1006 23.036L69.5528 28.836C69.4274 29.0341 69.3147 29.1922 69.2165 29.3121C69.1184 29.4319 69.0136 29.5278 68.9015 29.5981C68.7887 29.6684 68.6607 29.7148 68.5134 29.7355C68.3655 29.7563 68.1885 29.7674 67.9775 29.7674H67.1378C66.5926 29.7674 66.2282 29.6364 66.046 29.376C65.8638 29.1156 65.7734 28.7592 65.7734 28.3071V15.3331C65.7734 15.0646 65.9208 14.9304 66.2139 14.9304H68.4591C68.6561 14.9304 68.7774 14.9592 68.8272 15.0151C68.8763 15.071 68.8995 15.1781 68.8995 15.3331V24.8575H69.0248L70.809 21.8936L74.4424 15.8827C74.5677 15.6846 74.6805 15.5232 74.7787 15.3954C74.8768 15.2692 74.981 15.1701 75.0937 15.0998C75.2065 15.0295 75.3312 14.9832 75.4711 14.9624C75.6104 14.9416 75.7862 14.9304 75.9951 14.9304H76.856C77.374 14.9304 77.7302 15.0407 77.9272 15.258C78.1235 15.4769 78.2203 15.862 78.2203 16.4116V29.3648C78.2203 29.6332 78.0724 29.7674 77.7799 29.7674H75.5341C75.3378 29.7674 75.2124 29.7387 75.1574 29.6828C75.1017 29.6268 75.0731 29.5214 75.0731 29.3648V19.8612H74.9683Z" fill="white"/>
<path d="M97.5746 28.1787C98.1907 28.1787 98.7771 28.1084 99.3382 27.9678C99.8973 27.8272 100.422 27.6434 100.913 27.4181C101.067 27.3479 101.179 27.3415 101.249 27.3973C101.319 27.4533 101.368 27.5172 101.396 27.5875L101.796 28.4759C101.88 28.6453 101.908 28.7619 101.88 28.8258C101.851 28.8897 101.788 28.9568 101.691 29.0271C101.355 29.2252 100.996 29.3866 100.61 29.5144C100.225 29.6407 99.8403 29.7397 99.4549 29.81C99.0702 29.8803 98.6902 29.9299 98.3115 29.9586C97.9341 29.9874 97.5759 30.0001 97.2403 30.0001C96.2606 30.0001 95.3831 29.8515 94.6065 29.556C93.8298 29.2588 93.1758 28.8082 92.6432 28.2011C92.1106 27.5939 91.702 26.8253 91.4155 25.8939C91.1283 24.9623 90.9844 23.8551 90.9844 22.5705C90.9844 21.3849 91.1382 20.3096 91.4453 19.3429C91.7524 18.3763 92.1869 17.5518 92.746 16.8664C93.3058 16.1825 93.9803 15.6569 94.7716 15.2893C95.5622 14.9219 96.4338 14.7397 97.3842 14.7397C97.9865 14.7397 98.6093 14.7925 99.2526 14.8979C99.896 15.0033 100.575 15.2398 101.289 15.6073C101.372 15.6505 101.428 15.7064 101.457 15.7767C101.485 15.847 101.463 15.9525 101.393 16.0947L100.91 17.0677C100.868 17.1524 100.823 17.2131 100.774 17.2483C100.724 17.2834 100.644 17.2738 100.533 17.2163C99.5538 16.7785 98.5317 16.5596 97.4685 16.5596C96.6712 16.5596 95.988 16.7289 95.421 17.0677C94.8539 17.4064 94.3849 17.8538 94.0142 18.4114C93.6434 18.9691 93.3735 19.6113 93.2057 20.3367C93.0378 21.0637 92.9536 21.8083 92.9536 22.5705C92.9536 23.347 93.0266 24.074 93.1738 24.7499C93.3217 25.4273 93.5731 26.0201 93.9299 26.5282C94.2861 27.0363 94.7617 27.4389 95.3573 27.7345C95.9536 28.0317 96.6918 28.1787 97.5746 28.1787Z" fill="white"/>
<path d="M116.064 18.3797H115.959C115.93 18.4228 115.861 18.5874 115.748 18.8766C115.636 19.1658 115.514 19.4806 115.381 19.8193C115.247 20.158 115.125 20.476 115.013 20.7716C114.9 21.0672 114.837 21.2366 114.824 21.2797C114.783 21.3931 114.697 21.6008 114.572 21.9044C114.445 22.208 114.303 22.5611 114.142 22.9622C113.98 23.3648 113.809 23.7914 113.626 24.242C113.444 24.6942 113.268 25.1208 113.1 25.5218C112.932 25.9244 112.785 26.276 112.658 26.5796C112.531 26.8831 112.448 27.0844 112.406 27.1835C112.294 27.5078 112.168 27.73 112.028 27.8498C111.886 27.9696 111.655 28.0303 111.333 28.0303H110.64C110.316 28.0303 110.082 27.9696 109.934 27.8498C109.787 27.73 109.657 27.5078 109.544 27.1835C109.503 27.07 109.414 26.8624 109.282 26.5588C109.148 26.2552 109.001 25.9069 108.839 25.5106C108.678 25.116 108.502 24.6926 108.313 24.2404C108.125 23.7882 107.949 23.3664 107.787 22.9702C107.626 22.5755 107.478 22.2256 107.345 21.922C107.212 21.6184 107.125 21.4107 107.082 21.2972L106.009 18.5874H105.884V29.4028C105.884 29.5578 105.855 29.6568 105.802 29.6984C105.747 29.74 105.643 29.7623 105.491 29.7623H104.453C104.315 29.7623 104.214 29.7416 104.152 29.6984C104.09 29.6568 104.059 29.5578 104.059 29.4028V15.9846C104.059 15.6603 104.128 15.403 104.268 15.2113C104.407 15.0212 104.68 14.9253 105.085 14.9253H105.651C105.959 14.9253 106.193 14.978 106.353 15.0835C106.513 15.1889 106.664 15.419 106.803 15.7721L109.695 23.0101C109.724 23.066 109.796 23.253 109.915 23.5709C110.034 23.8888 110.166 24.234 110.313 24.6079C110.459 24.9818 110.592 25.3269 110.71 25.6448C110.83 25.9628 110.903 26.1497 110.931 26.2056H111.015C111.03 26.1497 111.099 25.966 111.224 25.656C111.349 25.346 111.483 25.0105 111.622 24.651C111.761 24.2915 111.891 23.956 112.01 23.646C112.129 23.336 112.202 23.1523 112.231 23.0964C112.286 22.9558 112.391 22.6905 112.544 22.3022C112.698 21.914 112.875 21.4666 113.078 20.9585C113.281 20.4504 113.498 19.9104 113.728 19.34C113.959 18.768 114.171 18.2359 114.366 17.7422C114.561 17.2485 114.729 16.8218 114.87 16.4624C115.011 16.1028 115.101 15.8728 115.143 15.7737C115.282 15.4206 115.436 15.1921 115.604 15.0851C115.772 14.9796 116.001 14.9269 116.296 14.9269H116.862C117.282 14.9269 117.557 15.0228 117.689 15.2129C117.822 15.403 117.889 15.6603 117.889 15.9862V29.4044C117.889 29.5594 117.86 29.6584 117.807 29.7C117.751 29.7416 117.648 29.7639 117.496 29.7639H116.458C116.32 29.7639 116.219 29.7432 116.157 29.7C116.095 29.6569 116.064 29.5594 116.064 29.4044V18.3797Z" fill="white"/>
<path d="M130.589 29.7673C130.463 29.7673 130.36 29.7529 130.284 29.7257C130.207 29.697 130.14 29.6059 130.085 29.4509L129.036 26.3401H123.116L122.067 29.4509C121.997 29.6635 121.849 29.7689 121.626 29.7689H120.199C120.059 29.7689 119.97 29.7305 119.935 29.6523C119.901 29.5756 119.897 29.4797 119.925 29.3663L124.668 15.7563C124.781 15.4176 124.906 15.1955 125.046 15.0901C125.185 14.9846 125.416 14.9239 125.738 14.9095H126.367C126.744 14.9095 127.001 14.9734 127.132 15.0997C127.266 15.2259 127.388 15.4463 127.5 15.7563L132.224 29.3663C132.265 29.4653 132.27 29.5564 132.235 29.6411C132.2 29.7257 132.113 29.7673 131.972 29.7673H130.589ZM127.083 20.1998L126.096 17.0889H125.991L125.047 20.0943L123.62 24.6241H128.489L127.083 20.1998Z" fill="white"/>
<path d="M134.241 15.9876C134.241 15.6201 134.317 15.3485 134.471 15.1727C134.625 14.9969 134.897 14.9075 135.289 14.9075H140.169C140.825 14.9075 141.429 15.0129 141.98 15.2255C142.532 15.4379 143.007 15.7367 143.405 16.125C143.803 16.5133 144.113 16.9782 144.336 17.5215C144.56 18.0647 144.672 18.6607 144.672 19.3094C144.672 19.6897 144.609 20.1418 144.484 20.6643C144.358 21.1868 144.124 21.6805 143.782 22.1455C143.44 22.6104 142.966 23.0067 142.357 23.331C141.75 23.6553 140.972 23.8183 140.023 23.8183H136.129V29.4058C136.129 29.5607 136.1 29.6598 136.044 29.7014C135.989 29.7429 135.883 29.7653 135.729 29.7653H134.638C134.498 29.7653 134.397 29.7445 134.333 29.7014C134.269 29.6582 134.238 29.5607 134.238 29.4058V15.9876H134.241ZM142.7 19.4164C142.7 19.1209 142.654 18.8125 142.564 18.4961C142.471 18.1781 142.315 17.8889 142.091 17.6285C141.868 17.3681 141.559 17.1492 141.167 16.9718C140.776 16.7961 140.287 16.7066 139.698 16.7066H136.15V22.1039H139.739C140.733 22.1039 141.474 21.8674 141.965 21.3945C142.455 20.9231 142.7 20.2633 142.7 19.4164Z" fill="white"/>
<path d="M150.171 16.6648H146.078C145.953 16.6648 145.872 16.6409 145.838 16.5914C145.802 16.5418 145.785 16.454 145.785 16.3261V15.2892C145.785 15.1757 145.802 15.091 145.838 15.0351C145.872 14.9792 145.953 14.9504 146.078 14.9504H156.364C156.489 14.9504 156.569 14.9792 156.604 15.0351C156.639 15.091 156.657 15.1757 156.657 15.2892V16.3261C156.657 16.4524 156.639 16.5418 156.604 16.5914C156.569 16.6409 156.489 16.6648 156.364 16.6648H152.144V29.4072C152.144 29.5622 152.115 29.6612 152.06 29.7028C152.005 29.7443 151.906 29.7667 151.766 29.7667H150.571C150.431 29.7667 150.33 29.7459 150.266 29.7028C150.203 29.6612 150.171 29.5622 150.171 29.4072V16.6648Z" fill="white"/>
<path d="M168.342 29.6608C168.293 29.7312 168.184 29.7663 168.017 29.7663H162.181C161.495 29.7663 160.924 29.6672 160.469 29.4707C160.014 29.2726 159.65 29.0122 159.378 28.6878C159.105 28.3634 158.912 27.9816 158.801 27.5454C158.689 27.1076 158.633 26.6426 158.633 26.149V18.5722C158.633 18.0929 158.696 17.6296 158.821 17.1854C158.947 16.7412 159.154 16.3529 159.441 16.0206C159.728 15.6898 160.095 15.4246 160.544 15.2265C160.992 15.0284 161.537 14.9309 162.181 14.9309H167.911C168.064 14.9309 168.166 14.966 168.215 15.0364C168.264 15.1066 168.287 15.2201 168.287 15.3751V16.2634C168.287 16.4184 168.262 16.5287 168.215 16.591C168.166 16.6549 168.064 16.6868 167.911 16.6868H162.201C161.614 16.6868 161.19 16.8179 160.932 17.0783C160.674 17.3404 160.544 17.7446 160.544 18.2958V21.0472H167.218C167.372 21.0472 167.473 21.0824 167.523 21.1526C167.572 21.223 167.595 21.3364 167.595 21.4914V22.2951C167.595 22.4357 167.57 22.5428 167.523 22.613C167.473 22.6834 167.372 22.7185 167.218 22.7185H160.544V26.4014C160.544 26.8807 160.669 27.2658 160.921 27.555C161.173 27.8442 161.599 27.9896 162.201 27.9896H168.015C168.183 27.9896 168.291 28.0248 168.34 28.095C168.389 28.1654 168.413 28.2788 168.413 28.4338V29.3222C168.415 29.4771 168.391 29.5906 168.342 29.6608Z" fill="white"/>
<path d="M178.173 21.8286C178.537 21.942 178.837 22.0826 179.077 22.252C179.314 22.4214 179.514 22.6195 179.676 22.8448C179.835 23.0701 179.965 23.3177 180.064 23.5862C180.162 23.8546 180.252 24.1502 180.336 24.4745L181.659 29.3845C181.688 29.4548 181.688 29.5363 181.659 29.6274C181.631 29.72 181.541 29.7648 181.387 29.7648H180.107C180.036 29.7648 179.959 29.7504 179.875 29.7232C179.791 29.6945 179.736 29.6178 179.707 29.49L178.447 24.7701C178.335 24.3611 178.202 24.0256 178.048 23.7651C177.895 23.5047 177.704 23.2954 177.481 23.1404C177.257 22.9854 177.005 22.88 176.725 22.8224C176.445 22.7665 176.123 22.7378 175.76 22.7378H172.78V29.4468C172.78 29.5874 172.754 29.6769 172.707 29.712C172.658 29.7472 172.57 29.7648 172.443 29.7648H171.227C171.114 29.7648 171.03 29.7472 170.975 29.712C170.919 29.6769 170.891 29.589 170.891 29.4468V15.2681C170.891 15.1275 170.919 15.0396 170.975 15.0028C171.03 14.9677 171.114 14.9502 171.227 14.9502H172.466C172.591 14.9502 172.679 14.9677 172.729 15.0028C172.778 15.038 172.796 15.1259 172.781 15.2681V20.9834H175.573C175.796 20.9834 176.034 20.9594 176.286 20.9099C176.538 20.8604 176.779 20.7613 177.01 20.6143C177.241 20.4657 177.454 20.2516 177.651 19.9688C177.847 19.686 178.007 19.3121 178.133 18.8471L179.078 15.185C179.106 15.0588 179.159 14.9805 179.235 14.9517C179.311 14.923 179.386 14.9102 179.455 14.9102H180.61C180.779 14.9102 180.873 14.9597 180.894 15.0588C180.915 15.1578 180.911 15.2425 180.883 15.3128L179.959 19.1012C179.806 19.7084 179.588 20.234 179.308 20.6782C179.028 21.1224 178.65 21.4723 178.175 21.7264V21.8286H178.173Z" fill="white"/>
<path d="M193.327 29.7672C193.201 29.7672 193.099 29.7528 193.022 29.7256C192.945 29.6969 192.878 29.6058 192.823 29.4508L191.773 26.34H185.854L184.804 29.4508C184.735 29.6634 184.588 29.7688 184.364 29.7688H182.937C182.797 29.7688 182.709 29.7304 182.673 29.6522C182.639 29.5755 182.636 29.4796 182.662 29.3662L187.406 15.7562C187.519 15.4175 187.645 15.1954 187.784 15.09C187.923 14.9845 188.155 14.9238 188.476 14.9094H189.105C189.482 14.9094 189.739 14.9733 189.87 15.0996C190.004 15.2258 190.126 15.4462 190.238 15.7562L194.962 29.3662C195.003 29.4652 195.007 29.5563 194.973 29.641C194.938 29.7256 194.851 29.7672 194.71 29.7672H193.327ZM189.821 20.1997L188.834 17.0888H188.73L187.785 20.0942L186.358 24.624H191.227L189.821 20.1997Z" fill="white"/>
</g>
</g>
<defs>
<linearGradient id="paint0_linear_27_108" x1="19.1832" y1="7.41319" x2="38.3689" y2="7.41319" gradientUnits="userSpaceOnUse">
<stop stop-color="#C2E4F3"/>
<stop offset="0.1352" stop-color="#BEE2F2"/>
<stop offset="0.279" stop-color="#B1DBEE"/>
<stop offset="0.4267" stop-color="#9CD1E8"/>
<stop offset="0.5771" stop-color="#7EC2E0"/>
<stop offset="0.7296" stop-color="#58AED5"/>
<stop offset="0.8816" stop-color="#2997C9"/>
<stop offset="1" stop-color="#0082BD"/>
</linearGradient>
<linearGradient id="paint1_linear_27_108" x1="0" y1="3.71487" x2="19.1854" y2="3.71487" gradientUnits="userSpaceOnUse">
<stop stop-color="#F6BDBD"/>
<stop offset="1" stop-color="#E20613"/>
</linearGradient>
<linearGradient id="paint2_linear_27_108" x1="12.8006" y1="18.5972" x2="28.8119" y2="18.5972" gradientUnits="userSpaceOnUse">
<stop stop-color="#EAEAEA"/>
<stop offset="1" stop-color="#E0DFE0"/>
</linearGradient>
<clipPath id="clip0_27_108">
<rect width="195" height="30" fill="white"/>
</clipPath>
</defs>
</svg>
