<svg width="163" height="26" viewBox="0 0 163 26" fill="none" xmlns="http://www.w3.org/2000/svg">
<g clip-path="url(#clip0_27_86)">
<path d="M27.8765 19.842H13.9786C13.5769 19.9181 13.1752 19.9941 12.8539 20.2221C12.4522 20.4502 12.1309 20.7543 11.8898 21.0584L9.07812 25.6958H31.4916L27.8765 19.842Z" fill="white"/>
<path d="M20.0821 18.0175C20.4837 18.2456 20.9658 18.3976 21.3675 18.3976H26.9909L15.744 0L12.1289 5.85378L18.9574 17.0292C19.2787 17.4093 19.6001 17.7894 20.0821 18.0175Z" fill="white"/>
<path d="M14.38 13.1521C14.38 12.6959 14.2997 12.2398 14.0586 11.8597L11.2469 7.29831L0 25.6959H7.14984L13.898 14.5965C14.2997 14.1404 14.38 13.6843 14.38 13.1521Z" fill="white"/>
<path d="M47.4765 12.0877C47.4765 11.8596 47.7175 3.11699 47.7175 3.11699L45.2271 12.0877H43.2991L40.8087 3.11699C40.8087 3.11699 41.0497 11.7076 41.0497 12.0877H38.9609V1.14038H42.0941L44.3435 9.27486L46.5928 1.14038H49.7258V12.0877H47.4765Z" fill="white"/>
<path d="M61.6984 12.0877H59.5293V4.94154L54.3879 10.7953V12.0877H52.2188V1.14038H54.3879V8.21054L59.5293 2.35676V1.14038H61.6984V12.0877Z" fill="white"/>
<path d="M71.4193 12.0877V7.14621H66.4386V12.0877H64.2695V1.14038H66.4386V5.24563H71.4193V1.14038H73.5884V12.0877H71.4193Z" fill="white"/>
<path d="M85.3965 1.14038V12.0877H83.2278V3.04097H78.4073V12.0877H76.2383V1.14038H85.3965Z" fill="white"/>
<path d="M92.4655 1.14038C94.876 1.14038 96.563 2.50879 96.563 4.78949C96.563 6.76609 95.3578 8.36256 92.3049 8.36256H90.1362V12.0877H88.0469V1.14038H92.4655ZM90.1362 6.69007H92.0641C93.5905 6.69007 94.3934 6.00585 94.3934 4.71346C94.3934 2.96492 92.867 2.8889 91.8232 2.8889H90.1362V6.69007Z" fill="white"/>
<path d="M103.231 0.836426C106.766 0.836426 108.774 3.57326 108.774 6.53816C108.774 9.04696 107.328 12.3159 103.231 12.3159C99.8571 12.3159 97.7678 9.65513 97.7678 6.61418C97.6875 3.4212 99.8571 0.836426 103.231 0.836426ZM103.231 10.4153C104.918 10.4153 106.525 9.19898 106.525 6.6902C106.525 4.7136 105.48 2.737 103.151 2.737C101.223 2.737 99.8571 4.18145 99.8571 6.53816C99.8571 8.21068 100.74 10.4153 103.231 10.4153Z" fill="white"/>
<path d="M119.376 12.0877C119.376 11.8596 119.616 3.11699 119.616 3.11699L117.126 12.0877H115.198L112.707 3.11699C112.707 3.11699 112.949 11.7076 112.949 12.0877H110.859V1.14038H113.993L116.242 9.27486L118.491 1.14038H121.625V12.0877H119.376Z" fill="white"/>
<path d="M128.373 2.96493V12.0117H126.203V2.96493H123.07V1.14038H131.586V2.96493H128.373Z" fill="white"/>
<path d="M138.258 0.836426C141.792 0.836426 143.8 3.57326 143.8 6.53816C143.8 9.04696 142.354 12.3159 138.258 12.3159C134.884 12.3159 132.795 9.65513 132.795 6.61418C132.714 3.4212 134.964 0.836426 138.258 0.836426ZM138.258 10.4153C139.945 10.4153 141.632 9.19898 141.632 6.6902C141.632 4.7136 140.587 2.737 138.258 2.737C136.33 2.737 134.964 4.18145 134.964 6.53816C134.964 8.21068 135.847 10.4153 138.258 10.4153Z" fill="white"/>
<path d="M150.386 1.14038C152.796 1.14038 154.483 2.50879 154.483 4.78949C154.483 6.76609 153.278 8.36256 150.225 8.36256H148.056V12.0877H145.887V1.14038H150.386ZM148.056 6.69007H149.984C151.511 6.69007 152.314 6.00585 152.314 4.71346C152.314 2.96492 150.787 2.8889 149.743 2.8889H148.056V6.69007Z" fill="white"/>
<path d="M162.998 1.14024V2.96479H158.259V12.0116H156.09V1.06421H162.998" fill="white"/>
<path d="M43.3794 14.7483C45.7894 14.7483 47.4765 16.1167 47.4765 18.3974C47.4765 20.374 46.2714 21.9706 43.2991 21.9706H41.13V25.6957H38.9609V14.7483H43.3794ZM41.0497 20.298H42.9777C44.5041 20.298 45.3074 19.6138 45.3074 18.3214C45.3074 16.5729 43.7811 16.4969 42.7368 16.4969H41.0497V20.298Z" fill="white"/>
<path d="M54.0666 14.4442C57.6014 14.4442 59.6097 17.181 59.6097 20.1459C59.6097 22.6547 58.1637 25.9236 54.0666 25.9236C50.6925 25.9236 48.6038 23.2628 48.6038 20.2219C48.5235 17.029 50.7729 14.4442 54.0666 14.4442ZM54.0666 24.0231C55.7536 24.0231 57.3603 22.8067 57.3603 20.2979C57.3603 18.3213 56.316 16.3447 53.9863 16.3447C52.0582 16.3447 50.6925 17.7892 50.6925 20.1459C50.7729 21.8944 51.6565 24.0231 54.0666 24.0231Z" fill="white"/>
<path d="M71.3398 22.6547C70.9381 23.567 69.6527 25.9997 66.359 25.9997C63.6276 25.9997 60.9766 24.2512 60.9766 20.146C60.9766 17.7132 62.4226 14.5203 66.4393 14.5203C69.4118 14.5203 70.6168 16.3448 71.0988 17.8652L68.9298 18.3974C68.7691 17.1811 67.7247 16.3448 66.4393 16.3448C64.5916 16.3448 63.226 17.7132 63.226 20.146C63.226 21.6664 63.8686 24.0232 66.4393 24.0232C67.9657 24.0232 68.9298 22.9588 69.2511 21.8185L71.3398 22.6547Z" fill="white"/>
<path d="M82.9061 22.6547C82.5046 23.567 81.2191 25.9997 77.9254 25.9997C75.194 25.9997 72.543 24.2512 72.543 20.146C72.543 17.7132 73.9889 14.5203 78.0057 14.5203C80.9782 14.5203 82.1834 16.3448 82.6652 17.8652L80.4964 18.3974C80.3358 17.1811 79.2911 16.3448 78.0057 16.3448C76.158 16.3448 74.7923 17.7132 74.7923 20.146C74.7923 21.6664 75.435 24.0232 78.0057 24.0232C79.5321 24.0232 80.4964 22.9588 80.8176 21.8185L82.9061 22.6547Z" fill="white"/>
<path d="M93.9914 25.6957H91.8218V18.5495L86.6805 24.4032V25.6957H84.5117V14.7483H86.6805V21.8185L91.8218 15.9647V14.7483H93.9914V25.6957Z" fill="white"/>
<path d="M106.042 25.6957H103.873V18.5495L98.7313 24.4032V25.6957H96.5625V14.7483H98.7313V21.8185L103.873 15.9647V14.7483H106.042V25.6957Z" fill="white"/>
</g>
<defs>
<clipPath id="clip0_27_86">
<rect width="163" height="26" fill="white"/>
</clipPath>
</defs>
</svg>
