<svg width="66" height="60" viewBox="0 0 66 60" fill="none" xmlns="http://www.w3.org/2000/svg">
<path d="M33 60C51.2254 60 66 46.5685 66 30C66 13.4315 51.2254 0 33 0C14.7746 0 0 13.4315 0 30C0 46.5685 14.7746 60 33 60Z" fill="#FEFEFE"/>
<path fill-rule="evenodd" clip-rule="evenodd" d="M54.2905 19.5634L54.0592 19.6228C41.0217 22.9679 25.6885 23.3709 12.2657 20.0118L12.0341 19.9538L12.1517 19.4971L12.3833 19.555C25.721 22.8929 40.9721 22.4938 53.9389 19.1668L54.1701 19.1074L54.2905 19.5634ZM9.1187 30.0463L56.8813 30.1954L56.8797 30.6666L9.11719 30.5175L9.1187 30.0463ZM12.7179 40.6527C26.1347 37.2954 39.9721 37.1769 53.0157 40.5236L53.247 40.5829L53.1266 41.0389L52.8953 40.9796C39.9346 37.6541 26.1791 37.7704 12.8355 41.1094L12.6038 41.1673L12.4863 40.7106L12.7179 40.6527ZM44.7541 49.0647C37.2721 44.7849 29.1791 45.038 21.6868 49.3239L21.4801 49.4421L21.2403 49.0346L21.447 48.9163C29.0768 44.5518 37.3531 44.2865 44.994 48.6571L45.2007 48.7754L44.9608 49.1829L44.7541 49.0647Z" fill="#2B2A29"/>
<path fill-rule="evenodd" clip-rule="evenodd" d="M32.0624 20.3605H34.4355L34.2059 51.559H32.7514L32.0624 20.3605Z" fill="#2F2483"/>
<path fill-rule="evenodd" clip-rule="evenodd" d="M36.6179 24.0269C36.612 23.6637 36.5483 23.1926 37.1646 23.0193C37.9852 22.7882 39.0266 23.4182 38.5942 24.5488C38.4637 24.89 38.3165 25.0349 38.1212 25.2794C37.9727 25.4648 38.0063 25.3968 37.9138 25.4963C37.4509 25.9942 36.631 26.4896 36.0359 26.8569C35.8409 26.9774 34.3151 27.9302 34.1523 28.0026L34.5803 28.9605C34.8019 29.0508 35.0668 30.5456 35.0924 30.5494C35.2181 30.5188 35.5799 30.3094 35.7225 30.2359C35.9386 30.1247 36.1432 30.0286 36.3648 29.916C38.3816 28.8901 40.6678 27.8268 41.6885 25.7501C42.2622 24.5831 42.3498 23.1875 41.5943 22.0295C41.5265 21.9258 41.4773 21.8499 41.4022 21.7538C41.3693 21.7115 41.3294 21.6621 41.2945 21.6158C41.0151 21.246 40.5882 20.9071 40.1509 20.6156C38.3151 19.3931 35.3701 20.021 35.0273 21.8554C34.9023 22.5249 35.2381 23.0165 35.5899 23.3612C35.8354 23.6015 36.2678 23.9576 36.6179 24.0269Z" fill="#2F2483"/>
<path fill-rule="evenodd" clip-rule="evenodd" d="M35.7758 49.3782L36.0549 49.2765C35.9701 49.35 35.869 49.4324 35.7821 49.4997C36.1816 49.4194 37.22 48.7918 37.5735 48.5068C38.4941 47.7656 39.3251 46.9255 39.3251 45.581C39.3251 44.3299 38.6091 43.5084 37.9242 42.6679C37.6296 42.3064 36.8523 41.6386 36.4468 41.3324C35.5722 40.6718 34.0938 39.7716 33.0946 39.0702C32.6175 38.7355 32.3699 38.5044 31.9842 38.2088L31.3582 37.609C30.9369 37.1256 30.3282 36.4675 30.2797 35.5202C30.2264 34.4738 30.9348 33.3858 31.5365 32.8245C31.7851 32.5927 32.4381 31.9716 32.4406 31.5353C32.443 31.0464 31.8146 31.1624 31.7772 30.6907L30.4542 29.9731C30.3299 30.0476 30.2544 30.13 30.1509 30.2245C30.1 30.2708 30.0602 30.2942 30.0076 30.3384C29.9504 30.3862 29.922 30.428 29.8673 30.4782C29.6669 30.6632 29.5041 30.7999 29.3182 31.0035C28.8456 31.5219 28.8279 31.5047 28.3498 32.1787C27.747 33.028 27.3658 34.2571 27.4704 35.5463C27.6708 38.0093 29.6426 39.4815 31.1114 40.4634C31.5327 40.7449 31.9718 41.0313 32.4402 41.2895C33.2916 41.7581 35.0197 42.7781 35.7343 43.38L36.2903 43.8984C36.8772 44.5236 37.7348 45.5257 37.5399 46.8633C37.4173 47.7048 37.0109 48.4333 36.451 48.9789C36.2519 49.1732 35.9884 49.2144 35.7758 49.3782Z" fill="#2F2483"/>
<path fill-rule="evenodd" clip-rule="evenodd" d="M24.4141 25.692C24.4934 26.0751 24.6 26.5819 24.9428 26.9839C25.5563 27.7038 25.2655 27.6685 25.5622 28.1042C25.7644 28.4008 25.8679 28.3637 26.1144 28.178C26.1757 28.132 26.2384 28.0705 26.2955 28.0008C26.6317 28.6243 27.0939 29.2443 27.7203 29.8232C28.7842 30.8054 29.8531 31.1594 31.0008 31.5292C30.8187 31.6994 30.7384 31.9762 30.843 32.258C30.9056 31.3874 30.0982 31.3578 29.709 31.4189C30.1366 31.5068 30.2938 31.4059 30.2447 31.6672C30.1955 31.9284 29.4971 31.5642 29.0117 31.5607C29.6907 31.8038 30.2149 31.9078 30.262 32.2144C30.3094 32.521 29.9819 32.5818 29.4743 32.6017C29.8351 32.6954 30.1031 32.7129 30.566 32.693C31.0289 32.6728 31.2671 32.8812 31.6192 32.7322C31.971 32.5828 31.6898 32.4087 31.9468 32.1698C32.0648 32.0603 32.1524 31.9944 32.1915 31.9339C32.9688 32.2254 33.7891 32.6137 34.6713 33.2691C38.9369 36.437 34.0976 40.0113 32.9917 40.734C31.8858 41.4564 29.8901 42.6065 28.8898 44.6074C28.6527 45.0242 27.6413 48.5072 31.1958 49.165C28.8261 48.3867 28.7593 45.832 30.1477 44.2915C30.8752 43.4844 32.0749 43.0302 33.197 42.4953C36.4617 40.939 37.8836 39.3271 38.3047 36.7707C38.726 34.2139 37.696 32.4039 35.6719 30.3234C35.3336 29.9756 34.9787 29.6532 34.6162 29.3549C34.8205 29.0298 35.1051 29.2608 34.9403 28.6188C34.7644 27.9342 35.1692 27.7759 35.3613 27.3777C35.2284 27.4594 34.9773 28.0097 34.7308 27.8995C34.4843 27.7886 34.3164 27.2836 34.4116 26.781C34.0567 27.4388 34.6034 27.7722 34.3091 27.7629C34.0148 27.754 33.7482 27.0409 33.8261 26.5115C33.6703 26.8675 33.636 27.0508 33.8438 27.6005C34.0515 28.1502 34.2561 28.1677 34.2908 28.5419C34.3122 28.7753 34.0744 28.707 33.8808 28.7867C32.6887 27.9201 31.4752 27.2819 30.5289 26.792C30.5362 26.7707 30.541 26.7484 30.5431 26.725C30.5691 26.4328 30.344 26.232 30.344 26.013C30.344 25.7936 30.8211 24.9696 30.8952 24.6623C30.6937 25.074 30.3787 25.6109 30.1453 25.5103C29.9116 25.4101 30.1498 24.8017 30.2578 24.3599C29.9317 25.0214 30.0587 25.2638 29.7644 25.2549C29.4701 25.2456 29.7385 24.4786 29.8164 23.9489C29.6606 24.3049 29.4615 24.9442 29.5048 25.4832C29.548 26.0219 29.7731 25.7572 29.8077 26.1314C29.8184 26.2475 29.78 26.3175 29.7222 26.3704C29.5418 26.2732 29.3822 26.1833 29.2475 26.0991C28.089 25.3764 27.141 24.9322 27.7729 23.7649C28.4051 22.5976 28.9844 23.1534 29.6689 21.9861C30.3534 20.8192 30.2277 20.2015 30.2277 20.2015C30.2277 20.2015 28.9317 19.93 27.7729 20.3189C26.6147 20.7079 26.0351 22.0417 25.7194 22.9313C25.5366 23.4456 25.2966 24.8045 25.6699 26.3597C25.6494 26.4119 25.6148 26.4521 25.5584 26.4679C25.3146 26.5369 25.0556 25.5625 24.9784 24.9246C24.8036 25.6985 25.4486 26.598 25.209 26.7779C24.9691 26.9581 24.6547 26.164 24.4141 25.692Z" fill="#6557A0" stroke="#2B2A29" stroke-width="0.1" stroke-miterlimit="22.9256" stroke-linecap="square"/>
<path fill-rule="evenodd" clip-rule="evenodd" d="M24.4023 25.6961C24.4816 26.0789 24.5879 26.585 24.9297 26.9866C25.5421 27.7059 25.2517 27.6709 25.5477 28.1062C25.7495 28.4025 25.8527 28.3654 26.0989 28.18C26.3451 27.9943 26.6106 27.5641 26.4645 27.3149C26.3184 27.0656 26.0248 27.0488 25.8998 26.874C25.7745 26.6996 25.6277 25.8901 25.6277 25.8901C25.6277 25.8901 25.7869 26.4023 25.5439 26.4713C25.3008 26.54 25.0425 25.5667 24.9653 24.9291C24.7912 25.7023 25.4348 26.6011 25.1956 26.781C24.9563 26.9612 24.6426 26.1675 24.4023 25.6961Z" fill="url(#paint0_linear_27_130)" stroke="#2B2A29" stroke-width="0.1" stroke-miterlimit="22.9256" stroke-linecap="square"/>
<path fill-rule="evenodd" clip-rule="evenodd" d="M31.1901 49.0964C28.826 48.3188 28.7591 45.7661 30.1444 44.2267C30.8701 43.4202 32.0671 42.9667 33.1868 42.4321C36.4442 40.8772 37.9063 39.2667 38.4998 36.712C39.0936 34.1573 37.7491 32.1812 35.8293 29.9993C33.7425 27.6277 30.402 26.7711 29.2463 26.0491C28.0902 25.327 27.1446 24.8828 27.7751 23.7165C28.4056 22.5502 28.9835 23.1054 29.6666 21.9395C30.3494 20.7732 30.2241 20.1562 30.2241 20.1562C30.2241 20.1562 28.9309 19.8847 27.7751 20.2733C26.6191 20.662 26.0412 21.9951 25.7258 22.8836C25.4107 23.7721 24.926 27.1834 27.7225 29.77C29.8242 31.7136 31.9452 31.1955 34.6579 33.2132C38.9135 36.3786 34.0853 39.9502 32.9818 40.6723C31.8787 41.3939 29.8875 42.543 28.8893 44.5425C28.6528 44.959 27.6436 48.4393 31.1901 49.0964Z" fill="url(#paint1_linear_27_130)" stroke="#2B2A29" stroke-width="0.1" stroke-miterlimit="22.9256" stroke-linecap="square"/>
<path fill-rule="evenodd" clip-rule="evenodd" d="M31.0571 49.2337C27.664 47.8638 28.8959 44.5603 30.9747 43.1513C32.9413 41.8179 35.2282 41.1281 37.0342 38.4217C38.6085 36.0624 37.2918 33.1173 35.1673 31.4443C33.0428 29.7713 30.4256 28.9971 28.9122 28.1306C27.0512 27.0652 25.9367 24.2057 26.8106 22.5529C27.6844 20.9002 28.5971 21.4975 29.2799 21.1645C29.963 20.8311 30.2258 20.276 30.2258 20.276C30.2258 20.276 29.2581 19.9859 27.7222 20.4271C26.1863 20.8679 25.7829 23.1081 25.7597 23.7745C25.7369 24.4412 25.5575 26.6409 27.6097 28.4526C29.4994 30.1205 32.1003 30.7395 32.6429 31.0804C33.1854 31.4213 36.3289 32.807 36.9293 35.7479C37.2738 37.4346 35.6257 39.5893 33.5559 40.9317C31.4826 42.2765 28.2634 43.9231 28.7155 46.6172C29.0362 48.5281 30.0063 48.7867 31.0571 49.2337Z" fill="url(#paint2_linear_27_130)" stroke="#2B2A29" stroke-width="0.1" stroke-miterlimit="22.9256" stroke-linecap="square"/>
<path fill-rule="evenodd" clip-rule="evenodd" d="M29.8059 23.9709C29.6504 24.327 29.452 24.9656 29.495 25.5039C29.5382 26.0426 29.7626 25.7779 29.7972 26.1521C29.8318 26.526 29.3568 26.4257 29.3482 26.7907C29.3395 27.1556 29.443 27.1924 29.7453 27.2013C30.0475 27.2106 30.5053 27.0372 30.5312 26.745C30.5569 26.4532 30.3325 26.2523 30.3325 26.0333C30.3325 25.8143 30.6777 25.0751 30.6777 25.0751C30.6777 25.0751 30.3671 25.6316 30.1338 25.5314C29.9007 25.4311 30.1511 24.8835 30.2463 24.3816C29.8921 25.0387 30.0475 25.2852 29.7539 25.2759C29.4603 25.2667 29.728 24.5004 29.8059 23.9709Z" fill="url(#paint3_linear_27_130)" stroke="#2B2A29" stroke-width="0.1" stroke-miterlimit="22.9256" stroke-linecap="square"/>
<path fill-rule="evenodd" clip-rule="evenodd" d="M29.3948 32.598C29.7549 32.6917 30.0225 32.7092 30.4844 32.6893C30.9463 32.6691 31.1841 32.8775 31.5349 32.7284C31.8859 32.5794 31.6058 32.405 31.862 32.1664C32.1183 31.9278 32.2322 31.8966 32.0134 31.6765C31.2966 30.9548 30.5142 31.59 30.7607 32.2547C30.8233 31.3847 30.2739 31.4139 29.7552 31.4121C29.7552 31.4121 30.2919 31.4063 30.2431 31.6672C30.1939 31.9282 29.418 31.5611 28.9336 31.5577C29.6112 31.8004 30.134 31.9045 30.1811 32.2111C30.2282 32.5173 29.9013 32.5781 29.3948 32.598Z" fill="url(#paint4_linear_27_130)" stroke="#2B2A29" stroke-width="0.1" stroke-miterlimit="22.9256" stroke-linecap="square"/>
<path fill-rule="evenodd" clip-rule="evenodd" d="M33.8184 26.5591C33.6633 26.9151 33.6287 27.0981 33.8361 27.6474C34.0435 28.1967 34.2474 28.2139 34.282 28.5881C34.3166 28.9624 33.6858 28.5603 33.638 29.238C33.6193 29.5051 33.8049 30.1166 34.1072 30.1259C34.4091 30.1348 34.4357 29.9748 34.4821 29.7455C34.6501 28.9163 35.1337 29.4591 34.9302 28.6647C34.7546 27.9808 35.1144 27.8768 35.3062 27.4788C35.1732 27.4387 34.9672 28.0563 34.7214 27.9461C34.4752 27.8356 34.3076 27.3305 34.4025 26.8286C34.0486 27.4857 34.594 27.8187 34.3004 27.8098C34.0068 27.8005 33.7408 27.0885 33.8184 26.5591Z" fill="url(#paint5_linear_27_130)" stroke="#2B2A29" stroke-width="0.1" stroke-miterlimit="22.9256" stroke-linecap="square"/>
<path fill-rule="evenodd" clip-rule="evenodd" d="M27.6042 22.0037C27.6835 22.118 27.8881 22.0758 28.1378 22.0518C28.3877 22.0277 28.2627 21.8712 28.5238 21.6061C28.8153 21.532 27.536 21.6844 27.6042 22.0037Z" fill="#005493" stroke="#2B2A29" stroke-width="0.1" stroke-miterlimit="22.9256" stroke-linecap="square"/>
<path fill-rule="evenodd" clip-rule="evenodd" d="M26.0938 20.5221C26.0938 20.5221 26.7523 21.2568 27.2973 21.2448C27.8426 21.2328 28.1718 21.1123 28.2965 20.7387C28.336 20.6213 28.4104 19.352 28.4419 19.189C28.3696 19.0664 28.1604 20.0143 28.0476 19.7791C27.935 19.5436 27.9267 19.5079 27.9219 19.1852C27.8197 19.5103 27.9447 19.5587 27.729 19.8598C27.5133 20.1609 27.1612 19.6308 27.1044 19.5103C27.1837 19.9079 27.2748 20.0401 27.1612 20.1609C27.0476 20.2814 26.6955 20.0044 26.5137 19.8475C26.3323 19.6909 26.9451 20.3175 26.7069 20.5101C26.4684 20.7027 26.0938 20.5221 26.0938 20.5221Z" fill="#2F2483" stroke="#2B2A29" stroke-width="0.1" stroke-miterlimit="22.9256" stroke-linecap="square"/>
<path fill-rule="evenodd" clip-rule="evenodd" d="M26.0938 20.5223C26.1021 20.5223 26.8458 21.2968 27.3101 21.2982C27.5715 21.2989 27.8339 21.2168 28.0334 21.1053C28.193 21.0163 28.3768 20.7345 28.399 20.6325C28.5195 20.0839 28.4412 19.8223 28.4558 19.1892C28.461 18.9502 28.3273 19.8429 28.2414 20.0887C28.1552 20.3348 27.9447 19.6431 27.8879 19.5225C27.8312 19.402 27.9901 20.2332 27.6833 20.4622C27.3769 20.6909 27.0064 20.3029 26.8247 20.1464C26.6429 19.9898 27.1837 20.5824 26.9455 20.775C26.7069 20.9679 26.0938 20.5223 26.0938 20.5223Z" fill="url(#paint6_linear_27_130)" stroke="#2B2A29" stroke-width="0.1" stroke-miterlimit="22.9256" stroke-linecap="square"/>
<path fill-rule="evenodd" clip-rule="evenodd" d="M28.0379 21.7285C28.0943 21.7285 28.1418 21.8174 28.1418 21.8772C28.1418 21.9366 28.0961 22.0148 28.0396 22.0148C27.9835 22.0148 27.9375 21.9366 27.9375 21.8772C27.9375 21.8174 27.9818 21.7285 28.0379 21.7285Z" fill="#FEFEFE" stroke="#2B2A29" stroke-width="0.1" stroke-miterlimit="22.9256" stroke-linecap="square"/>
<path fill-rule="evenodd" clip-rule="evenodd" d="M20.1468 10.1609L19.7552 10.4349L18.7557 9.20373L18.1875 9.60095C18.4756 10.0105 18.5895 10.4163 18.5299 10.8215C18.4707 11.2252 18.2585 11.5552 17.8922 11.8113C17.5071 12.0808 17.0858 12.1779 16.627 12.1034C16.1696 12.0289 15.7656 11.7759 15.4152 11.344C15.0506 10.8953 14.892 10.4555 14.9388 10.0253C14.9859 9.5958 15.2068 9.24287 15.6001 8.96786C15.9581 8.71758 16.3445 8.61836 16.7603 8.67089C17.1768 8.72308 17.5632 8.92735 17.9181 9.2851L18.4946 8.88169L17.5286 7.69207L17.9202 7.4181L20.1468 10.1609ZM17.6702 9.72249C17.3887 9.37573 17.0844 9.16699 16.7569 9.09593C16.4293 9.02451 16.126 9.08666 15.8459 9.28235C15.5599 9.48251 15.4093 9.73828 15.3944 10.0497C15.3799 10.3614 15.5191 10.6975 15.8116 11.0577C16.089 11.3993 16.3916 11.6101 16.7188 11.6891C17.047 11.7677 17.3538 11.7072 17.6401 11.5071C17.9309 11.3035 18.0805 11.0426 18.0874 10.7253C18.0947 10.4088 17.9559 10.0744 17.6702 9.72249ZM14.9575 14.2568L13.8118 13.1932C13.6418 13.3507 13.5559 13.4884 13.5556 13.6051C13.5535 13.7226 13.6193 13.9337 13.7515 14.2396C13.8502 14.4659 13.9118 14.6337 13.9347 14.7436C13.9586 14.8528 13.9513 14.9702 13.9129 15.0952C13.8741 15.2208 13.8035 15.3317 13.6999 15.4279C13.5871 15.5322 13.5151 15.5968 13.4853 15.6201L13.1858 15.3417C13.1965 15.3317 13.2197 15.3111 13.2557 15.2802C13.2945 15.2462 13.3184 15.2253 13.327 15.2174C13.4378 15.1144 13.4925 15.0138 13.4925 14.9142C13.4939 14.8136 13.442 14.6492 13.3374 14.4219C13.2246 14.1757 13.1612 13.9948 13.1491 13.8795C13.137 13.7641 13.1605 13.6357 13.2214 13.4956C13.0023 13.611 12.6806 13.6199 12.2561 13.5245L10.8459 13.2162L11.2749 12.8182L12.4216 13.072C12.727 13.1382 12.9573 13.1698 13.1145 13.1677C13.2716 13.1653 13.4219 13.0981 13.5656 12.9645L12.3413 11.8281L12.6966 11.4985L13.9208 12.6349C14.0354 12.5288 14.1061 12.4066 14.1334 12.2703C14.1608 12.133 14.1334 11.9187 14.0514 11.6262L14.0372 11.5727L13.7636 10.5077L14.1937 10.1087L14.5264 11.4171C14.6268 11.8157 14.6164 12.1148 14.4935 12.3149C14.6261 12.2631 14.7535 12.2387 14.8764 12.2432C14.9997 12.2466 15.205 12.306 15.4931 12.4207C15.7548 12.5247 15.9359 12.5738 16.037 12.5683C16.1388 12.5632 16.2423 12.5113 16.3483 12.4128L16.4837 12.2806L16.7832 12.5587C16.7728 12.5728 16.7077 12.6356 16.5872 12.7475C16.4733 12.8533 16.35 12.9233 16.2198 12.9573C16.0886 12.992 15.964 12.9981 15.8459 12.9765C15.7275 12.9549 15.5436 12.8986 15.295 12.8069C14.9606 12.6819 14.7328 12.6208 14.6105 12.6236C14.489 12.6267 14.3412 12.7063 14.167 12.8636L15.3127 13.9272L14.9575 14.2568ZM10.7095 13.6137L13.6643 15.6805L13.3693 16.0441L12.1557 15.1951L10.9986 16.6206L12.2122 17.4696L11.9172 17.8328L8.96241 15.766L9.2574 15.4024L10.65 16.3765L11.8071 14.9513L10.4145 13.977L10.7095 13.6137ZM10.2518 17.1651C10.7888 17.4414 11.1295 17.7916 11.2732 18.2156C11.4169 18.6396 11.3629 19.0637 11.1098 19.4873C10.9443 19.7644 10.7234 19.9779 10.4481 20.1269C10.1722 20.2759 9.87162 20.3432 9.54651 20.3288C9.22208 20.3147 8.89732 20.2234 8.57393 20.0569C8.2457 19.888 7.9881 19.6758 7.80321 19.4197C7.61763 19.1636 7.52553 18.8886 7.52657 18.5947C7.5283 18.3001 7.6069 18.0234 7.7627 17.7625C7.93167 17.4792 8.15568 17.2643 8.43613 17.118C8.71623 16.9704 9.01815 16.9052 9.34119 16.9217C9.66353 16.9378 9.96753 17.0192 10.2518 17.1651ZM10.0001 17.5716C9.60987 17.3707 9.24528 17.3103 8.90459 17.3889C8.56354 17.4686 8.3056 17.655 8.13006 17.9489C7.9514 18.2483 7.91747 18.5524 8.02896 18.8621C8.14045 19.1718 8.40393 19.4348 8.8208 19.649C9.08359 19.7843 9.33842 19.8605 9.58425 19.8794C9.83042 19.8979 10.0548 19.8554 10.258 19.7524C10.4609 19.6483 10.6219 19.498 10.74 19.2999C10.9082 19.018 10.9488 18.7227 10.8612 18.4124C10.7743 18.1027 10.4869 17.8219 10.0001 17.5716ZM7.92405 19.9755L8.34438 20.141L7.79906 21.3341L7.37873 21.1686L7.92405 19.9755ZM9.81276 21.9356L9.66803 22.3754L7.14779 22.831L9.00673 24.3828L8.86442 24.8147L6.51868 22.8021C6.22507 22.5498 6.04192 22.3596 5.96782 22.2318C5.89407 22.1028 5.88715 21.9462 5.94774 21.7625C5.98444 21.6503 6.05853 21.5215 6.16829 21.3746L6.56854 21.4882C6.45774 21.584 6.38088 21.6966 6.33829 21.8267C6.30298 21.9328 6.31025 22.0344 6.35803 22.1326C6.40616 22.2305 6.54465 22.362 6.77524 22.5292L9.81276 21.9356ZM5.34356 24.2327L8.96275 24.9469L8.67261 26.2141C8.62137 26.4369 8.57082 26.6051 8.52096 26.7181C8.45379 26.877 8.3655 27.0044 8.25643 27.0998C8.14841 27.1946 8.01095 27.2615 7.84615 27.3C7.68065 27.3385 7.50857 27.3398 7.32887 27.3045C7.02141 27.2437 6.78113 27.1012 6.60939 26.8781C6.4387 26.6535 6.40685 26.304 6.51557 25.8292L6.71327 24.9675L5.24177 24.677L5.34356 24.2327ZM7.14017 25.0516L6.94143 25.9205C6.87565 26.2079 6.88604 26.4232 6.97398 26.5663C7.06192 26.7095 7.20977 26.8018 7.41889 26.843C7.57054 26.8729 7.70834 26.8633 7.8323 26.8135C7.9566 26.7634 8.04869 26.6844 8.10998 26.5746C8.14841 26.5038 8.19065 26.3682 8.23705 26.1663L8.43371 25.3067L7.14017 25.0516ZM4.8062 26.6844L8.42678 28.182L8.39908 28.6705L4.62478 29.8948L4.65421 29.3775L5.79609 29.0317L5.87676 27.5973L4.77885 27.1668L4.8062 26.6844ZM6.26766 27.7477L6.20222 28.9112L7.24543 28.6026C7.56189 28.5088 7.82191 28.4398 8.0255 28.3969C7.7904 28.3416 7.55912 28.2685 7.32956 28.1775L6.26766 27.7477ZM8.36481 30.44L8.48599 32.5882L4.79132 32.7678L4.76569 32.3136L8.02411 32.1549L7.95417 30.9155L6.05126 31.0082C5.66521 31.0271 5.3813 31.024 5.19953 30.9993C5.01775 30.9743 4.87372 30.9101 4.76777 30.8081C4.66182 30.7051 4.60435 30.5709 4.595 30.4057C4.58946 30.3058 4.60227 30.185 4.63482 30.0425L5.0728 30.0981C5.04337 30.1747 5.02987 30.2395 5.03264 30.2931C5.03853 30.3961 5.08527 30.4706 5.17044 30.5187C5.257 30.5657 5.45435 30.5815 5.7632 30.5664L8.36481 30.44ZM8.58709 32.9673L8.66361 33.4167L7.10313 33.646L7.24127 34.4556C7.30567 34.8339 7.30498 35.1141 7.2392 35.2977C7.17376 35.4814 7.06539 35.6222 6.91547 35.7204C6.76485 35.8186 6.60351 35.8804 6.43074 35.9058C6.14821 35.9473 5.88542 35.8937 5.64201 35.7465C5.39896 35.5985 5.23553 35.2809 5.15244 34.7934L4.93258 33.5046L8.58709 32.9673ZM5.42008 33.8935L5.5603 34.7148C5.61709 35.0481 5.71819 35.2559 5.86291 35.3383C6.00695 35.42 6.16864 35.4481 6.34799 35.4217C6.49444 35.4 6.61251 35.3455 6.70219 35.2569C6.79151 35.1686 6.84137 35.0615 6.85037 34.9355C6.85938 34.8088 6.83964 34.6004 6.78978 34.3083L6.68695 33.7071L5.42008 33.8935ZM7.58301 38.4525L7.60759 38.9215C7.19384 38.9394 6.84622 38.8584 6.56577 38.6795C6.28601 38.4996 6.09039 38.239 5.97752 37.8967C5.86083 37.5424 5.84352 37.2331 5.92558 36.9673C6.00798 36.7012 6.17729 36.4685 6.43351 36.2697C6.69041 36.0702 6.98748 35.9226 7.32506 35.8265C7.69346 35.7221 8.03623 35.696 8.35373 35.7489C8.67088 35.8017 8.9406 35.9284 9.16253 36.1296C9.38447 36.3301 9.5427 36.5752 9.63826 36.865C9.74663 37.1939 9.74767 37.4954 9.64103 37.7707C9.53439 38.046 9.33288 38.274 9.03477 38.4546L8.78514 38.0581C9.01781 37.9084 9.16876 37.7453 9.2387 37.5664C9.30899 37.3886 9.30726 37.1898 9.23489 36.9697C9.1518 36.7174 9.01746 36.5255 8.83118 36.3926C8.64422 36.2601 8.43059 36.1904 8.18823 36.1845C7.94621 36.178 7.70834 36.2079 7.47533 36.2741C7.17376 36.3596 6.92516 36.4747 6.72711 36.6195C6.52976 36.7648 6.40338 36.9388 6.34868 37.1424C6.29432 37.346 6.30021 37.5475 6.36634 37.7477C6.44632 37.9908 6.59001 38.1751 6.79636 38.3015C7.00341 38.4275 7.26586 38.4776 7.58301 38.4525ZM10.1562 38.4426L10.3473 38.8608L8.85611 39.4485C8.94337 39.6398 9.04447 39.7582 9.16011 39.8046C9.2754 39.8502 9.51223 39.8746 9.87093 39.8756C10.1337 39.8753 10.3245 39.8852 10.4429 39.9065C10.5606 39.9268 10.6756 39.9772 10.786 40.0569C10.8968 40.1376 10.9813 40.2406 11.0391 40.3673C11.1129 40.5286 11.1499 40.6138 11.151 40.6237L10.7608 40.7775C10.7542 40.7628 10.7421 40.7346 10.7244 40.692C10.705 40.6457 10.6932 40.6175 10.6884 40.6072C10.6271 40.473 10.5471 40.3882 10.4478 40.3511C10.3477 40.3123 10.1638 40.2952 9.89759 40.3003C9.56139 40.3075 9.33877 40.2893 9.2297 40.2454C9.12168 40.2011 9.02127 40.1372 8.92952 40.0535C8.96241 40.2814 8.85127 40.5623 8.59748 40.8967L7.76132 41.995L7.52345 41.4755L8.20658 40.5825C8.39562 40.3371 8.51507 40.1458 8.56666 40.0109C8.61687 39.8753 8.60648 39.73 8.5355 39.5749L6.94178 40.2028L6.75066 39.7846L10.1562 38.4426ZM7.79317 41.9939L11.6966 41.356L11.9681 41.7752L9.57663 44.7495L9.28891 44.3052L10.0274 43.4259L9.23074 42.1948L8.06116 42.408L7.79317 41.9939ZM9.64518 42.1165L10.2916 43.1152L10.9706 42.3177C11.1766 42.076 11.3507 41.8837 11.4934 41.7426C11.2652 41.8185 11.0294 41.8782 10.7843 41.9215L9.64518 42.1165ZM11.5931 47.1822L14.5479 45.1151L13.5608 43.899C13.3624 43.6546 13.1847 43.4874 13.0286 43.3974C12.8724 43.3075 12.6962 43.2714 12.4999 43.2886C12.3036 43.3068 12.1242 43.3731 11.9618 43.4867C11.752 43.6336 11.6267 43.8194 11.5855 44.0463C11.5439 44.2729 11.6104 44.5314 11.7849 44.8219C11.6572 44.7604 11.5491 44.7216 11.4598 44.7058C11.2694 44.6732 11.0564 44.6646 10.8224 44.6794L9.63099 44.7649L10.0015 45.2215L10.911 45.1539C11.1738 45.1364 11.3812 45.1285 11.5308 45.1319C11.6804 45.1347 11.7963 45.1494 11.8774 45.1779C11.9594 45.2057 12.0301 45.2425 12.0906 45.2878C12.1336 45.3231 12.1928 45.387 12.269 45.4807L12.6107 45.9016L11.2988 46.8194L11.5931 47.1822ZM12.949 45.6647L12.3157 44.8844C12.1814 44.7189 12.0941 44.5757 12.0557 44.4566C12.0165 44.3368 12.0183 44.2245 12.0598 44.1191C12.1017 44.0137 12.1699 43.9279 12.2658 43.8609C12.4054 43.7634 12.5581 43.7294 12.7249 43.761C12.8911 43.7919 13.0566 43.9093 13.2221 44.1129L13.9267 44.9809L12.949 45.6647ZM14.9142 50.1444L17.0117 47.8239L16.0779 47.0968L16.3587 46.786L18.6047 48.536L18.3243 48.8463L17.3863 48.1161L15.2888 50.4363L14.9142 50.1444ZM17.3745 49.8039C17.718 49.3311 18.1231 49.0465 18.5909 48.9507C19.0586 48.8549 19.5087 48.9418 19.9415 49.2127C20.2244 49.3898 20.4342 49.613 20.5703 49.8804C20.7057 50.1486 20.7521 50.4322 20.7081 50.7315C20.6645 51.0306 20.5384 51.3227 20.3317 51.607C20.1216 51.8961 19.8716 52.1158 19.5807 52.2645C19.2892 52.4138 18.9863 52.4749 18.6712 52.4482C18.3551 52.421 18.0649 52.3242 17.7987 52.1577C17.5092 51.9764 17.2984 51.7509 17.1654 51.4786C17.0318 51.2067 16.9881 50.9217 17.0338 50.6244C17.0792 50.3278 17.1928 50.0538 17.3745 49.8039ZM17.7886 50.0717C17.5393 50.4153 17.4424 50.7473 17.4974 51.069C17.5532 51.3914 17.7305 51.6461 18.0307 51.8339C18.336 52.0255 18.6598 52.0832 19.0018 52.0073C19.3439 51.9311 19.649 51.71 19.9156 51.3437C20.0835 51.1123 20.1877 50.8833 20.2289 50.6574C20.2704 50.4315 20.2441 50.2203 20.1513 50.0233C20.0575 49.8265 19.91 49.6648 19.7082 49.5381C19.4201 49.3582 19.1067 49.2947 18.7661 49.349C18.4261 49.4022 18.0999 49.6435 17.7886 50.0717ZM19.8809 53.2453L21.5027 50.1582L22.7571 50.7264C22.9777 50.8263 23.1411 50.9125 23.247 50.9846C23.3973 51.0838 23.5091 51.194 23.5825 51.3152C23.6552 51.4353 23.6919 51.5758 23.6923 51.7333C23.6926 51.8916 23.6521 52.0468 23.5718 52.1999C23.434 52.4622 23.2269 52.6445 22.952 52.7451C22.6764 52.8443 22.3032 52.7884 21.833 52.5759L20.9799 52.1893L20.3206 53.4445L19.8809 53.2453ZM21.1713 51.825L22.0317 52.2147C22.3157 52.3431 22.5435 52.3857 22.7145 52.3414C22.8856 52.2967 23.0175 52.1858 23.1113 52.0077C23.1792 51.8782 23.2024 51.7519 23.1802 51.6279C23.1584 51.504 23.0978 51.4017 22.9981 51.3203C22.933 51.2685 22.8018 51.1974 22.602 51.1071L21.7509 50.7219L21.1713 51.825ZM24.3342 51.3317L26.582 52.0911L26.4327 52.4722L24.6444 51.8679L23.5285 54.7144L23.0687 54.5589L24.3342 51.3317ZM25.6433 53.6954C25.7711 53.1375 26.0321 52.7331 26.4268 52.4815C26.8219 52.2298 27.2741 52.1539 27.7848 52.2549C28.1186 52.3208 28.4032 52.4543 28.6372 52.6552C28.8713 52.8567 29.0288 53.1036 29.1088 53.3964C29.1888 53.6886 29.1898 54.0037 29.1129 54.3392C29.035 54.6801 28.8917 54.9709 28.6819 55.2099C28.4721 55.4495 28.2158 55.6115 27.9125 55.6963C27.6089 55.7811 27.3007 55.7925 26.9864 55.7303C26.645 55.663 26.3583 55.5271 26.1253 55.3207C25.8916 55.1154 25.7365 54.8665 25.6586 54.5747C25.5807 54.2839 25.5758 53.9904 25.6433 53.6954ZM26.1357 53.7998C26.0429 54.2049 26.0868 54.5465 26.2679 54.8257C26.4497 55.1055 26.717 55.2799 27.0708 55.3496C27.4316 55.421 27.755 55.3619 28.0413 55.1724C28.328 54.9829 28.5216 54.6722 28.6206 54.2396C28.6833 53.9663 28.6871 53.7181 28.6344 53.4943C28.5818 53.2704 28.4721 53.0836 28.3066 52.9333C28.1404 52.7836 27.9382 52.6847 27.7 52.6377C27.3603 52.5707 27.0438 52.6212 26.7499 52.7898C26.4563 52.9573 26.2513 53.2944 26.1357 53.7998ZM29.356 56.0561L29.7427 52.6404L31.1235 52.775C31.4047 52.8025 31.6259 52.8595 31.788 52.9446C31.9507 53.0304 32.0712 53.1499 32.1512 53.303C32.2308 53.4558 32.2626 53.6106 32.2446 53.7682C32.2284 53.9138 32.1698 54.047 32.0694 54.1675C31.9701 54.288 31.8288 54.3797 31.6477 54.4425C31.8638 54.5246 32.0224 54.6447 32.1259 54.802C32.2294 54.9599 32.2696 55.1384 32.2471 55.3372C32.2291 55.4969 32.1754 55.6421 32.0871 55.7726C31.9985 55.903 31.8967 56.0002 31.781 56.0644C31.6657 56.1286 31.5248 56.1712 31.3593 56.1938C31.1938 56.2161 30.994 56.2158 30.7593 56.1931L29.356 56.0561ZM30.0675 54.1236L30.8635 54.2012C31.0785 54.2221 31.235 54.2238 31.3323 54.2067C31.4597 54.1843 31.5594 54.1373 31.6308 54.0638C31.7024 53.9904 31.7454 53.8939 31.7589 53.7748C31.7717 53.6618 31.754 53.5588 31.7052 53.4671C31.656 53.3748 31.5788 53.3075 31.4743 53.2653C31.3694 53.2227 31.1841 53.1887 30.9196 53.1629L30.1845 53.0912L30.0675 54.1236ZM29.8888 55.7005L30.805 55.7897C30.9625 55.8052 31.0737 55.8103 31.1384 55.8062C31.2527 55.7983 31.3496 55.7763 31.4299 55.7399C31.5103 55.7042 31.5792 55.6466 31.6373 55.5686C31.6945 55.49 31.7301 55.397 31.7426 55.2878C31.7571 55.1608 31.7343 55.0468 31.6747 54.9451C31.6152 54.8446 31.5252 54.769 31.4043 54.7186C31.2842 54.6691 31.1066 54.6324 30.8725 54.6097L30.0218 54.5266L29.8888 55.7005ZM32.3724 54.7234C32.3298 54.1545 32.4603 53.6989 32.7654 53.3559C33.0701 53.0129 33.4824 52.8244 34.0032 52.7904C34.3435 52.7685 34.6569 52.8244 34.9415 52.9573C35.2261 53.0912 35.4508 53.2883 35.6149 53.5492C35.7787 53.8098 35.8732 54.1122 35.8988 54.4542C35.9251 54.8023 35.8739 55.1182 35.743 55.4014C35.6125 55.6857 35.4141 55.9071 35.1482 56.0661C34.8812 56.2254 34.5883 56.315 34.2677 56.3356C33.9197 56.3583 33.6036 56.3013 33.3187 56.1626C33.0327 56.0249 32.8097 55.8251 32.6483 55.5648C32.487 55.3049 32.3952 55.0241 32.3724 54.7234ZM32.8765 54.698C32.9077 55.111 33.0517 55.4279 33.3086 55.65C33.5662 55.8725 33.8751 55.9717 34.2358 55.9483C34.6039 55.9243 34.8971 55.7853 35.1163 55.5295C35.3355 55.2741 35.4293 54.9256 35.3961 54.4844C35.3749 54.2063 35.305 53.9663 35.188 53.7645C35.071 53.5629 34.9103 53.4115 34.7064 53.3092C34.5017 53.2079 34.2784 53.1647 34.0354 53.1805C33.6888 53.2031 33.4 53.3322 33.1674 53.5694C32.9347 53.806 32.8377 54.1826 32.8765 54.698ZM36.2426 55.1443L36.1633 54.7268L37.5386 54.5016L37.6179 54.9191L36.2426 55.1443ZM37.3796 52.6061L40.1904 51.9071L41.1481 55.2246L40.6723 55.3431L39.8275 52.4169L37.9655 52.8801L38.8099 55.8062L38.3373 55.9236L37.3796 52.6061ZM41.9482 55.0351L40.6221 51.8288L41.925 51.3646C42.1542 51.2829 42.3339 51.2307 42.4627 51.2081C42.6435 51.1737 42.8062 51.173 42.952 51.206C43.0963 51.2383 43.2317 51.309 43.3564 51.4165C43.4813 51.5243 43.5762 51.6575 43.6417 51.8164C43.7545 52.089 43.7569 52.3537 43.6486 52.6092C43.5388 52.8639 43.2404 53.0792 42.7522 53.2532L41.8658 53.5688L42.4049 54.8724L41.9482 55.0351ZM41.7093 53.1904L42.6029 52.8722C42.8979 52.7668 43.087 52.6414 43.1684 52.4948C43.2501 52.3486 43.2528 52.1831 43.176 51.9981C43.1206 51.8635 43.0368 51.7615 42.9243 51.6922C42.8114 51.6225 42.6898 51.594 42.5572 51.606C42.4724 51.6149 42.3267 51.6554 42.1193 51.7296L41.2353 52.0444L41.7093 53.1904ZM44.0686 52.4917C43.7708 51.9929 43.6818 51.5287 43.802 51.0982C43.9225 50.668 44.2102 50.335 44.6669 50.1002C44.965 49.9467 45.2745 49.8742 45.593 49.8832C45.9119 49.8928 46.2052 49.9834 46.4728 50.1554C46.7398 50.3271 46.9631 50.5643 47.1421 50.8644C47.3242 51.1693 47.4215 51.4759 47.4322 51.7838C47.4433 52.0928 47.3644 52.3712 47.1958 52.6198C47.0261 52.8687 46.8014 53.0648 46.5206 53.2096C46.2152 53.3665 45.9029 53.4386 45.5813 53.4249C45.2596 53.4122 44.9663 53.3188 44.7018 53.1461C44.4373 52.9738 44.2261 52.7554 44.0686 52.4917ZM44.5142 52.2707C44.7302 52.6329 45.0051 52.8639 45.3389 52.9645C45.6737 53.0648 45.9988 53.0335 46.3153 52.8708C46.6376 52.705 46.8402 52.4633 46.9226 52.146C47.0046 51.8284 46.9312 51.4759 46.7003 51.0889C46.5545 50.8448 46.3818 50.655 46.1841 50.5183C45.986 50.3813 45.7713 50.3072 45.5401 50.2945C45.3088 50.2828 45.0865 50.3312 44.8732 50.4411C44.5696 50.5973 44.3667 50.828 44.2638 51.1343C44.1603 51.4395 44.2441 51.8188 44.5142 52.2707ZM48.6139 52.1306L46.3361 49.4241L46.917 49.0029L49.2198 50.4188C49.4335 50.5509 49.5927 50.6505 49.6963 50.7188C49.6468 50.5963 49.5765 50.414 49.4861 50.1719L48.5994 47.7827L49.1187 47.4061L51.3966 50.1129L51.0244 50.3824L49.118 48.1171L50.1772 50.9969L49.8292 51.2496L47.0469 49.557L48.9861 51.8611L48.6139 52.1306ZM49.4172 47.2897L49.7575 46.9625L50.8942 47.9812L51.5074 47.3917C51.9097 47.0051 52.2511 46.8197 52.5316 46.8355C52.812 46.8513 53.0495 46.9464 53.2448 47.1215C53.4505 47.3058 53.562 47.5328 53.581 47.8009C53.5997 48.0697 53.4252 48.3815 53.0572 48.7351L52.0787 49.6758L49.4172 47.2897ZM52.1199 49.0801L52.7421 48.4817C52.9557 48.2764 53.0738 48.0941 53.0949 47.9345C53.1178 47.7745 53.0464 47.6217 52.8834 47.4758C52.7719 47.3759 52.6496 47.3206 52.5167 47.3093C52.3824 47.2979 52.2594 47.3275 52.1466 47.3979C52.0334 47.4686 51.8692 47.6069 51.6525 47.8153L51.1972 48.2531L52.1199 49.0801ZM51.6629 45.1312L52.0029 44.8044L54.6644 47.1901L54.3244 47.517L51.6629 45.1312ZM52.2169 44.5671L52.5046 44.1998L55.1443 45.9803L55.8669 45.0571L53.2272 43.2766L53.5145 42.9089L56.1546 44.6894L56.8772 43.7662L54.2371 41.9857L54.5249 41.6183L57.5181 43.6371L55.2101 46.5859L52.2169 44.5671ZM54.7042 41.1274L55.7921 39.2281L59.0591 40.8407L58.8289 41.2424L55.9479 39.8203L55.3202 40.9159L57.0025 41.7464C57.3439 41.915 57.5859 42.0533 57.7279 42.1615C57.8698 42.2696 57.9578 42.3936 57.9917 42.5319C58.0253 42.6706 58.0004 42.8131 57.9166 42.9594C57.866 43.0476 57.7881 43.1448 57.6811 43.2515L57.3366 42.9944C57.4041 42.9429 57.4516 42.8938 57.4789 42.8464C57.5309 42.7554 57.5326 42.6692 57.4859 42.5872C57.4377 42.5055 57.2774 42.3973 57.0042 42.2628L54.7042 41.1274ZM59.4258 40.1719L55.9275 39.0537L56.7982 36.7061L57.2113 36.8379L56.4998 38.7564L57.571 39.0987L58.2372 37.3021L58.6478 37.4332L57.9813 39.2298L59.1724 39.6106L59.9119 37.6165L60.3246 37.7487L59.4258 40.1719ZM60.5203 37.1057L56.9301 36.2748L57.0489 35.8333L58.5232 36.1746L58.9885 34.4429L57.5139 34.1016L57.6327 33.6601L61.2224 34.4909L61.104 34.9324L59.412 34.5407L58.947 36.2728L60.6387 36.6642L60.5203 37.1057ZM61.3575 33.7514L57.6714 33.452L57.7144 32.9988L59.2281 33.1217L59.3957 31.3437L57.882 31.2208L57.9245 30.7672L61.6106 31.0666L61.5676 31.5201L59.8309 31.379L59.6633 33.1571L61.4 33.2979L61.3575 33.7514ZM61.6043 30.6903L57.8802 29.431L57.8709 28.9418L61.5441 27.4761L61.5538 27.9942L60.4406 28.4131L60.4676 29.8492L61.5953 30.2076L61.6043 30.6903ZM60.0663 29.7246L60.0445 28.5597L59.027 28.9353C58.7181 29.0489 58.464 29.1344 58.2642 29.1907C58.5028 29.2309 58.7392 29.2885 58.975 29.3648L60.0663 29.7246ZM61.0199 24.4274L57.3761 25.0238L57.6611 26.5234C57.7182 26.8248 57.795 27.0487 57.8899 27.1946C57.9851 27.3405 58.1243 27.4469 58.3078 27.5142C58.4917 27.5808 58.6838 27.5973 58.884 27.5647C59.1429 27.5221 59.3455 27.4095 59.493 27.2245C59.6408 27.0404 59.708 26.7819 59.6948 26.4492C59.7783 26.5584 59.8558 26.6381 59.9275 26.6899C60.0812 26.7994 60.2668 26.8966 60.4825 26.9821L61.586 27.4081L61.4793 26.8451L60.6359 26.522C60.3928 26.4269 60.2045 26.3466 60.0729 26.2803C59.9407 26.2151 59.8448 26.153 59.7862 26.0932C59.727 26.0342 59.682 25.9717 59.6502 25.9054C59.6294 25.856 59.6076 25.7743 59.5858 25.6586L59.4871 25.1395L61.1051 24.8748L61.0199 24.4274ZM59.0695 25.2078L59.2523 26.1701C59.2911 26.3741 59.2987 26.5385 59.2749 26.6611C59.251 26.7843 59.1945 26.8835 59.1059 26.9598C59.0173 27.036 58.9144 27.0837 58.7964 27.1033C58.6243 27.1314 58.4716 27.0971 58.3383 26.9986C58.2053 26.9011 58.115 26.7266 58.0675 26.4753L57.8643 25.4052L59.0695 25.2078ZM56.7075 22.502L55.5241 20.0346L58.904 18.6376L59.1045 19.0554L56.1234 20.2873L56.9076 21.9225L59.8887 20.6903L60.0878 21.1051L56.7075 22.502ZM58.7579 18.3107L54.833 18.822L54.5771 18.3938L57.079 15.4993L57.3498 15.9524L56.5787 16.8073L57.329 18.0632L58.5059 17.8885L58.7579 18.3107ZM56.9115 18.1281L56.3031 17.1091L55.5947 17.884C55.3794 18.1192 55.1983 18.3056 55.0504 18.4419C55.2814 18.3736 55.5192 18.3217 55.7658 18.286L56.9115 18.1281ZM53.7192 17.0229L52.2923 15.3279L55.208 13.2134L55.5096 13.5722L52.9384 15.4371L53.7614 16.4149L55.263 15.3259C55.5677 15.1048 55.8021 14.9561 55.9662 14.8799C56.1307 14.8033 56.2882 14.779 56.4382 14.8064C56.5884 14.8342 56.7186 14.9136 56.8284 15.044C56.8948 15.123 56.9585 15.2287 57.0202 15.3626L56.6272 15.5504C56.6036 15.4718 56.5749 15.4117 56.5393 15.3695C56.4707 15.2881 56.3866 15.2517 56.2868 15.2579C56.1871 15.2655 56.0154 15.3575 55.7716 15.5343L53.7192 17.0229ZM54.9604 12.8735L51.2851 14.2509L50.9257 13.8932L52.5988 10.5228L52.9796 10.9015L52.454 11.904L53.5093 12.9545L54.6059 12.5206L54.9604 12.8735ZM53.1212 13.1111L52.2653 12.259L51.7799 13.1702C51.6324 13.4465 51.5053 13.668 51.3973 13.8338C51.6033 13.7154 51.8208 13.6117 52.0507 13.5217L53.1212 13.1111ZM51.9084 10.0037L49.7676 12.2899L50.6875 13.0321L50.4009 13.338L48.1877 11.5524L48.4744 11.2462L49.3982 11.9919L51.5389 9.70567L51.9084 10.0037ZM50.6747 8.96375L47.4675 11.1257L47.0254 10.8592L47.7705 7.21313L48.2386 7.49535L47.99 8.58609L49.2877 9.36818L50.2385 8.70076L50.6747 8.96375ZM48.9519 9.60713L47.8993 8.97267L47.6659 9.96556C47.595 10.267 47.5292 10.5108 47.4675 10.6958C47.6369 10.5345 47.8204 10.3851 48.0201 10.2461L48.9519 9.60713Z" fill="#2B2A29"/>
<path d="M19.7656 6.40411L20.4394 8.10562C21.1657 8.34114 21.9072 8.5581 22.6501 8.77546C23.8511 9.12686 25.0557 9.47931 26.2052 9.91288C26.2211 9.91886 26.2381 9.92521 26.2561 9.93191C26.5729 10.0504 27.1883 10.2805 27.3236 10.5573C27.4514 10.8187 27.2983 11.2706 27.1943 11.5777C27.1822 11.6135 27.1708 11.6473 27.1605 11.6786C27.0703 11.9548 26.9698 12.2265 26.8693 12.4981C26.7402 12.847 26.6111 13.1959 26.504 13.5542C26.3237 14.1649 26.2233 15.4425 27.0078 15.6797C27.067 15.6976 27.178 15.7139 27.2849 15.7296C27.4059 15.7473 27.5216 15.7643 27.5514 15.782C27.6988 15.8691 27.3101 16.2912 27.1911 16.4204C27.1787 16.4338 27.1693 16.4441 27.1636 16.4505L26.794 16.8701C26.3453 17.3796 25.8966 17.889 25.4484 18.3995L25.3476 18.5145H41.0341C40.8936 18.3498 40.6863 18.13 40.4567 17.8865C39.8938 17.2897 39.1966 16.5505 39.0191 16.1308C38.8705 15.78 39.0448 15.7274 39.2632 15.6615C39.4052 15.6187 39.5659 15.5702 39.6686 15.4304C40.1353 14.6497 39.56 13.0972 39.1694 12.0431C39.0943 11.8406 39.0261 11.6565 38.9734 11.4997C38.9597 11.459 38.9386 11.4016 38.914 11.3344C38.8182 11.0731 38.6686 10.665 38.6926 10.5271C38.7935 9.9514 40.5943 9.42122 41.236 9.23228C41.2656 9.22358 41.2927 9.2156 41.317 9.20838C42.0698 8.98109 42.8686 8.82607 43.6561 8.67321C43.9393 8.61826 44.221 8.56359 44.4986 8.50594L45.7017 8.25497L46.5195 6.3042C45.7911 6.50125 45.0539 6.68861 44.3151 6.87637C42.8605 7.24604 41.3997 7.61727 39.9878 8.06717C39.0662 8.36071 38.0029 8.75279 37.3703 9.516C36.5982 10.4474 37.1719 11.9745 37.612 12.9341C37.7349 13.2023 37.8831 13.6379 37.6133 13.8717C37.3339 14.1138 36.8058 13.598 36.4524 13.2527C36.3522 13.1548 36.266 13.0706 36.2035 13.0213C35.5325 12.4919 34.2362 11.9694 33.3803 11.9162C32.5569 11.865 31.5999 12.1709 30.8562 12.5012C30.4011 12.7093 30.0514 12.9992 29.6951 13.2946C29.4942 13.4612 29.2911 13.6295 29.0658 13.7859C28.8262 13.9521 28.4932 14.0877 28.4163 13.6805C28.3492 13.3245 28.5671 12.7344 28.766 12.1958C28.877 11.895 28.9822 11.6102 29.0285 11.3912C29.2937 10.1388 28.5133 9.61419 27.5483 9.03534C26.6872 8.51898 25.9196 8.20038 24.9574 7.91988C23.2271 7.415 21.4971 6.90978 19.7672 6.40456L19.7656 6.40411Z" fill="#2F2483"/>
<path d="M21.0048 9.14108L25.3552 10.1783L25.0505 11.2446L21.8361 10.7547L21.0048 9.14108Z" fill="#2F2483"/>
<path d="M24.9392 11.8784L22.1686 11.475L23.1384 12.7717L24.9672 12.8871L24.9392 11.8784Z" fill="#2F2483"/>
<path d="M23.7476 13.4635H25.2163L25.5915 14.8018C24.7622 14.4671 24.1476 14.0214 23.7476 13.4635Z" fill="#2F2483"/>
<path d="M25.5915 14.8018C25.6049 14.8072 25.6183 14.8126 25.6318 14.8179L25.6041 14.8468L25.5915 14.8018Z" fill="#2F2483"/>
<path d="M40.7829 10.1783L45.1333 9.14108L44.302 10.7547L41.0875 11.2446L40.7829 10.1783Z" fill="#2F2483"/>
<path d="M43.9694 11.475L41.1985 11.8784L41.1708 12.8871L42.9996 12.7717L43.9694 11.475Z" fill="#2F2483"/>
<path d="M40.9215 13.4635H42.3899C41.9903 14.0213 41.3757 14.467 40.5464 14.8017L40.9215 13.4635Z" fill="#2F2483"/>
<path d="M40.5464 14.8017C40.5329 14.8071 40.5193 14.8125 40.5057 14.8179L40.5337 14.8468L40.5464 14.8017Z" fill="#2F2483"/>
<defs>
<linearGradient id="paint0_linear_27_130" x1="26.7335" y1="25.396" x2="24.1948" y2="27.9563" gradientUnits="userSpaceOnUse">
<stop stop-color="#834335"/>
<stop offset="0.121569" stop-color="#E6AC2A"/>
<stop offset="0.239216" stop-color="#FEFEFE"/>
<stop offset="0.521569" stop-color="#E6A833"/>
<stop offset="1" stop-color="#883D39"/>
</linearGradient>
<linearGradient id="paint1_linear_27_130" x1="22.8454" y1="41.1591" x2="41.1685" y2="27.675" gradientUnits="userSpaceOnUse">
<stop stop-color="#834335"/>
<stop offset="0.180392" stop-color="#E6AC2A"/>
<stop offset="0.290196" stop-color="#FEFEFE"/>
<stop offset="0.411765" stop-color="#C27531"/>
<stop offset="0.580392" stop-color="#E6A833"/>
<stop offset="0.701961" stop-color="#EDDECC"/>
<stop offset="1" stop-color="#883D39"/>
</linearGradient>
<linearGradient id="paint2_linear_27_130" x1="29.2685" y1="19.2278" x2="34.807" y2="49.9484" gradientUnits="userSpaceOnUse">
<stop stop-color="#834335"/>
<stop offset="0.121569" stop-color="#E6AC2A"/>
<stop offset="0.239216" stop-color="#FEFEFE"/>
<stop offset="0.439216" stop-color="#E6A833"/>
<stop offset="0.670588" stop-color="#FEFEFE"/>
<stop offset="0.811765" stop-color="#E6AC2A"/>
<stop offset="1" stop-color="#834335"/>
</linearGradient>
<linearGradient id="paint3_linear_27_130" x1="29.0005" y1="24.7881" x2="31.0119" y2="26.4107" gradientUnits="userSpaceOnUse">
<stop stop-color="#834335"/>
<stop offset="0.501961" stop-color="#E6AC2A"/>
<stop offset="0.85098" stop-color="#FEFEFE"/>
<stop offset="0.960784" stop-color="#E6A833"/>
<stop offset="1" stop-color="#883D39"/>
</linearGradient>
<linearGradient id="paint4_linear_27_130" x1="29.8577" y1="30.9219" x2="31.2898" y2="33.1542" gradientUnits="userSpaceOnUse">
<stop stop-color="#834335"/>
<stop offset="0.0117647" stop-color="#E6AC2A"/>
<stop offset="0.0784314" stop-color="#FEFEFE"/>
<stop offset="0.568627" stop-color="#E6A833"/>
<stop offset="0.878431" stop-color="#BD6F32"/>
<stop offset="1" stop-color="#883D39"/>
</linearGradient>
<linearGradient id="paint5_linear_27_130" x1="33.3565" y1="27.242" x2="35.5681" y2="29.472" gradientUnits="userSpaceOnUse">
<stop stop-color="#834335"/>
<stop offset="0.611765" stop-color="#E6AC2A"/>
<stop offset="0.678431" stop-color="#E6A833"/>
<stop offset="0.811765" stop-color="#FEFEFE"/>
<stop offset="1" stop-color="#883D39"/>
</linearGradient>
<linearGradient id="paint6_linear_27_130" x1="25.9431" y1="20.6905" x2="28.5994" y2="19.5427" gradientUnits="userSpaceOnUse">
<stop stop-color="#834335"/>
<stop offset="0.121569" stop-color="#E6AC2A"/>
<stop offset="0.431373" stop-color="#FEFEFE"/>
<stop offset="0.658824" stop-color="#E6A833"/>
<stop offset="1" stop-color="#883D39"/>
</linearGradient>
</defs>
</svg>
