<svg width="161" height="41" viewBox="0 0 161 41" fill="none" xmlns="http://www.w3.org/2000/svg">
<g clip-path="url(#clip0_27_69)">
<path d="M61.4717 21.4914C61.4717 23.6061 61.7816 25.1162 62.4007 26.0226C63.1236 27.0295 64.2591 27.533 65.9104 27.533C67.3551 27.533 68.4906 27.0295 69.213 25.8213C69.8326 24.7136 70.1424 23.2032 70.1424 21.2902V12.8321H71.2779V21.8942C71.2779 24.0087 70.7615 25.7205 69.7293 26.9287C68.6971 28.0364 67.2524 28.6405 65.4973 28.6405C63.6394 28.6405 62.1941 28.1373 61.1619 27.0295C60.6461 26.4252 60.233 25.6197 60.027 24.7136C59.8204 23.9081 59.8204 23.0018 59.8204 21.8942V12.8321H61.4717V21.4914ZM76.3356 25.3177C76.8515 26.0226 77.3673 26.6267 77.987 27.0295C78.6061 27.4324 79.329 27.6338 80.1546 27.6338C81.0836 27.6338 81.9092 27.3316 82.5288 26.7273C83.148 26.0226 83.4578 25.2171 83.4578 24.3108C83.4578 23.2032 82.8381 22.2971 81.5999 21.5924C80.3612 21.1896 79.2252 20.5853 78.0902 20.0818C76.7482 19.3769 76.1291 18.2694 76.1291 16.8598C76.1291 15.45 76.6449 14.3424 77.6771 13.537C78.6061 12.8321 79.8448 12.4294 81.2901 12.4294C81.9092 12.4294 82.5288 12.53 83.148 12.7315C83.7671 12.9327 84.2834 13.1341 84.696 13.537C84.5927 13.7384 84.49 14.0404 84.3867 14.2416C84.3867 14.2416 84.2834 14.6445 84.0769 15.45H83.7671C83.5611 14.7451 83.148 14.2416 82.7349 13.9396C82.219 13.6376 81.5999 13.4361 80.877 13.4361C80.0514 13.4361 79.4322 13.6376 78.8126 14.141C78.2968 14.6445 77.987 15.3494 77.987 16.0541C77.987 17.2624 78.6061 18.1687 79.8448 18.7729C81.0836 19.2763 82.219 19.7798 83.3545 20.2832C84.696 20.9879 85.3156 22.0957 85.3156 23.4047C85.3156 25.0156 84.7993 26.3246 83.6643 27.2307C82.6316 28.1373 81.1868 28.6405 79.535 28.6405C78.9159 28.6405 78.193 28.5399 77.4706 28.2377C76.7482 28.0364 76.1291 27.7342 75.716 27.3316C75.8193 26.9287 75.9226 26.6267 76.0258 26.4252C76.0258 26.1232 76.1291 25.7205 76.1291 25.3177H76.3356ZM101.211 25.3177C101.624 26.0226 102.14 26.6267 102.76 27.0295C103.379 27.4324 104.101 27.6338 104.927 27.6338C105.96 27.6338 106.682 27.3316 107.301 26.7273C107.921 26.0226 108.23 25.2171 108.23 24.3108C108.23 23.2032 107.611 22.2971 106.372 21.5924C105.134 21.1896 103.998 20.5853 102.863 20.0818C101.521 19.3769 100.902 18.2694 100.902 16.8598C100.902 15.45 101.418 14.3424 102.45 13.537C103.379 12.8321 104.618 12.4294 106.166 12.4294C106.785 12.4294 107.301 12.53 107.921 12.7315C108.54 12.9327 109.056 13.1341 109.469 13.537C109.366 13.7384 109.262 14.0404 109.159 14.2416C109.159 14.2416 109.056 14.6445 108.85 15.45H108.54C108.333 14.7451 107.921 14.2416 107.508 13.9396C106.991 13.6376 106.372 13.4361 105.65 13.4361C104.824 13.4361 104.205 13.6376 103.585 14.141C103.069 14.6445 102.76 15.3494 102.76 16.0541C102.76 17.2624 103.379 18.1687 104.618 18.7729C105.856 19.2763 106.991 19.7798 108.23 20.2832C109.469 20.9879 110.088 22.0957 110.088 23.4047C110.088 25.0156 109.572 26.3246 108.437 27.2307C107.404 28.1373 105.96 28.6405 104.308 28.6405C103.689 28.6405 102.966 28.5399 102.243 28.2377C101.521 28.0364 100.902 27.7342 100.592 27.3316C100.695 26.9287 100.695 26.6267 100.799 26.4252C100.799 26.1232 100.902 25.7205 100.902 25.3177H101.211ZM127.945 15.5506C127.326 14.8459 126.603 14.2416 125.777 13.9396C124.952 13.537 124.023 13.3355 123.094 13.3355C121.03 13.3355 119.378 14.0404 118.242 15.45C117.107 16.759 116.488 18.6722 116.488 20.9879C116.488 23.2032 117.107 24.915 118.346 26.224C119.481 27.4324 121.03 28.0364 122.887 28.0364C125.055 28.0364 126.706 27.0295 127.945 25.2171C128.874 23.8075 129.39 22.1963 129.39 20.4845C129.39 19.4777 129.287 18.5714 129.081 17.7659C128.874 16.9604 128.462 16.2555 127.945 15.5506ZM114.217 20.6859C114.217 18.2694 115.043 16.2555 116.694 14.7451C118.346 13.3355 120.307 12.53 122.784 12.53C125.262 12.53 127.223 13.2349 128.874 14.4431C130.732 15.8529 131.661 17.7659 131.661 20.3838C131.661 22.9012 130.835 24.915 129.184 26.4252C127.533 27.9356 125.365 28.7411 122.784 28.7411C120.204 28.7411 118.139 28.0364 116.591 26.5261C114.939 25.1162 114.217 23.1024 114.217 20.6859ZM136.822 12.8321H145.183L145.079 13.4361L145.183 14.141C144.667 14.0404 144.254 13.9396 143.944 13.9396C143.737 13.839 143.428 13.839 143.015 13.839H138.886V19.5784H142.499C142.809 19.5784 143.222 19.5784 143.737 19.4777C144.151 19.4777 144.46 19.4777 144.564 19.4777V20.6859C144.357 20.6859 143.944 20.6859 143.428 20.5853C142.912 20.5853 142.603 20.5853 142.499 20.5853H138.886V28.3385L137.854 28.2377L136.822 28.3385V12.8321ZM155.918 28.4393L154.886 28.3385L153.853 28.4393V13.839C152.615 13.839 151.789 13.9396 151.273 13.9396C150.757 13.9396 149.931 14.0404 148.692 14.141L148.796 13.4361L148.692 12.8321H160.769L160.666 13.4361L160.769 14.141C160.15 14.141 159.427 14.0404 158.601 13.9396C157.672 13.9396 156.847 13.839 155.918 13.839V28.4393ZM88.9281 20.5853C88.9281 19.4777 89.3412 18.5714 90.1668 17.7659C90.8892 17.0612 91.8181 16.6584 92.9536 16.6584C93.9858 16.6584 94.9147 17.0612 95.7409 17.7659C96.4633 18.5714 96.8759 19.4777 96.8759 20.5853C96.8759 21.6928 96.4633 22.6998 95.7409 23.5053C95.018 24.2101 94.0891 24.6128 92.9536 24.6128C91.8181 24.6128 90.8892 24.2101 90.1668 23.5053C89.3412 22.6998 88.9281 21.6928 88.9281 20.5853ZM89.6504 20.5853C89.6504 21.5924 89.9603 22.3977 90.5799 23.0018C91.199 23.7067 92.0247 24.0087 92.9536 24.0087C93.8825 24.0087 94.6054 23.7067 95.2245 23.0018C95.9469 22.3977 96.2567 21.5924 96.2567 20.5853C96.2567 19.6792 95.9469 18.8735 95.2245 18.2694C94.6054 17.5645 93.8825 17.2624 92.9536 17.2624C92.0247 17.2624 91.199 17.5645 90.5799 18.2694C89.9603 18.8735 89.6504 19.6792 89.6504 20.5853ZM91.5088 18.37H93.1601C93.5732 18.37 93.8825 18.4708 94.0891 18.6722C94.2956 18.8735 94.5022 19.0749 94.5022 19.4777C94.5022 19.7798 94.3989 19.9812 94.1923 20.1824C93.9858 20.4845 93.7798 20.5853 93.47 20.6859C93.5732 20.9879 93.7798 21.2902 93.9858 21.5924C94.1923 21.8942 94.3989 22.1963 94.6054 22.4983L94.8115 22.9012L94.2956 22.8006L93.7798 22.9012L92.6438 20.7867H92.4378V22.9012L91.9214 22.8006L91.5088 22.9012V18.37ZM92.4378 20.5853C92.7476 20.5853 93.0569 20.4845 93.2634 20.3838C93.3667 20.1824 93.47 19.9812 93.47 19.5784C93.47 19.2763 93.3667 19.0749 93.2634 18.8735C93.1601 18.8735 92.9536 18.7729 92.7476 18.7729H92.4378V20.5853ZM45.576 19.8804V28.3385L44.5438 28.2377L43.5117 28.3385V12.8321H48.4662C50.221 12.8321 51.5628 13.0335 52.3886 13.6376C53.2141 14.2416 53.6272 15.0474 53.6272 16.2555C53.6272 17.4639 53.2141 18.4708 52.1819 19.2763C51.3563 19.8804 50.221 20.2832 48.8789 20.5853L53.6272 26.5261L54.7627 27.7342L55.2785 28.3385L53.9371 28.2377L52.5951 28.3385L51.1498 26.3246L48.363 22.9012L46.505 20.7867L45.7824 19.8804H46.4018C46.505 19.8804 46.6083 19.8804 46.8145 19.8804C47.1242 19.8804 47.4341 19.8804 47.7438 19.8804C48.0533 19.8804 48.363 19.8804 48.5694 19.7798C49.4983 19.5784 50.221 19.1757 50.7371 18.6722C51.3563 18.0679 51.5628 17.3633 51.5628 16.5576C51.5628 14.8459 50.7371 13.9396 49.0856 13.6376C48.6725 13.6376 48.2597 13.6376 47.8469 13.6376C47.5371 13.6376 47.2274 13.6376 46.7115 13.6376C46.1953 13.6376 45.7824 13.6376 45.576 13.6376V19.8804Z" fill="white"/>
<path d="M34.8669 9.34673C36.5963 9.07697 38.3257 9.95432 38.7407 11.5064C39.1557 13.0583 37.9797 14.6103 36.043 14.8804C34.6594 15.0828 33.3451 14.4755 32.7224 13.5983L26.3584 14.543C26.2201 16.1626 25.5973 17.8494 24.6291 19.3341L29.7479 23.7202C30.9931 23.113 32.584 23.2481 33.8294 24.2602C35.5587 25.6773 36.043 28.3766 34.7285 30.1987C33.3451 32.0879 30.7856 32.2228 29.0561 30.5358C27.8802 29.3213 27.465 27.6342 27.8802 26.1494L22.8306 21.3585C21.447 22.7081 19.7868 23.6528 17.9882 24.0577L17.5041 31.8855C18.6107 32.4928 19.4409 34.0449 19.3718 35.9343C19.2336 38.6336 17.4348 40.9953 15.3596 40.9953C13.2845 40.9953 11.9699 38.7685 12.3158 36.1368C12.5233 34.3147 13.4919 32.7628 14.7369 32.0206L15.5671 24.3275C13.8378 24.2602 12.4542 23.6528 11.4165 22.6408L6.50529 27.9041C6.57435 29.1862 6.09008 30.7383 4.98348 31.953C3.46149 33.5049 1.6629 33.64 0.971103 32.1555C0.348817 30.7383 0.971103 28.5115 2.3547 27.0945C3.39239 26.0147 4.56828 25.6773 5.39826 26.082L10.1713 21.0884C9.54883 19.9413 9.27227 18.5243 9.41065 17.0398L4.56828 17.7821C3.94579 18.7268 2.90809 19.4691 2.00901 19.6039C0.76381 19.8066 0.141113 18.7943 0.625208 17.3772C1.04041 16.0949 2.3547 14.8804 3.53058 14.6779C4.43009 14.543 4.98348 14.9477 5.12188 15.7575L9.89477 14.9477C10.3098 13.5983 11.0709 12.3162 12.0392 11.2364L9.47977 8.80695C8.64977 9.21206 7.81956 9.27961 7.33524 8.80695C6.78185 8.26733 7.12779 7.05262 8.09617 6.24282C8.99544 5.36563 10.2407 5.09561 10.8631 5.63544C11.3472 6.04034 11.3472 6.71506 10.9324 7.45753L13.561 9.75184C14.6678 8.87471 15.913 8.19979 17.2273 7.79488L17.5732 3.88091C16.8816 3.74603 16.3971 3.27353 16.5355 2.59882C16.6048 1.72168 17.6423 0.776947 18.7493 0.506977C19.9252 0.236954 20.8243 0.7094 20.7552 1.65413C20.7552 2.32885 20.2018 3.07111 19.3718 3.47622L19.095 7.45753C20.4786 7.32244 21.7238 7.52486 22.7613 7.99736L26.3584 4.28581C26.0126 3.67864 26.1509 2.8015 26.7734 2.12637C27.6727 1.24923 29.1945 0.911877 30.3013 1.38432C31.4081 1.9241 31.6156 3.07111 30.7165 4.08339C30.0247 4.82564 28.9179 5.23075 27.9493 5.09561L24.283 9.00958C25.1824 9.81944 25.8741 10.9664 26.2201 12.3836L32.3076 11.3713C32.6533 10.359 33.6219 9.54942 34.8669 9.34673Z" fill="#F26F23"/>
<path fill-rule="evenodd" clip-rule="evenodd" d="M15.7048 18.8617C15.7742 19.2666 15.7742 19.604 15.7742 19.874C15.7742 20.0762 15.7742 20.2789 15.7742 20.4138C15.7048 20.5487 15.7048 20.6163 15.5665 20.6836C15.5665 20.6836 15.4973 20.6836 15.4281 20.6836C15.2898 20.6836 15.2206 20.6836 15.1515 20.6836C14.9437 20.7514 14.8747 20.7514 14.8056 20.7514C14.7362 20.6836 14.6672 20.6163 14.5981 20.5487C14.5981 20.4814 14.5981 20.3463 14.5981 20.2789C14.5981 20.144 14.5981 19.8067 14.5981 19.2666C14.6672 18.7269 14.6672 18.2544 14.6672 17.7146C14.6672 17.5797 14.7362 17.1748 14.7362 16.7023C14.1137 16.5674 14.0445 16.2301 14.8056 15.825C14.8056 15.4878 14.8056 15.2853 14.8747 14.9478C14.8747 14.2055 13.9062 15.5554 13.9062 14.678C15.1515 13.3959 18.6793 10.3591 20.2011 11.6414C20.8929 12.721 18.4717 14.3404 16.189 15.7576C17.7109 15.9603 22.6222 18.7944 21.1006 20.5487C20.8929 20.8187 20.2702 20.7514 20.0629 20.4138C18.8178 18.5917 17.1575 16.9048 15.7048 16.8374C15.7048 17.4446 15.7048 18.2544 15.7048 18.8617ZM15.7048 13.8682C15.7048 14.6104 15.7742 14.4755 15.7742 15.2178C16.3965 14.6104 20.0629 12.3836 18.8868 12.3163C18.1953 12.3163 17.2267 12.5187 15.7742 13.8682H15.7048Z" fill="white"/>
</g>
<defs>
<clipPath id="clip0_27_69">
<rect width="161" height="41" fill="white"/>
</clipPath>
</defs>
</svg>
