<svg width="127" height="38" viewBox="0 0 127 38" fill="none" xmlns="http://www.w3.org/2000/svg">
<g clip-path="url(#clip0_27_74)">
<path d="M9.37463 0C4.19962 0 0 4.25578 0 9.5V28.5C0 33.7442 4.19962 38 9.37463 38H28.1239C33.2989 38 37.4985 33.7442 37.4985 28.5V0H9.37463Z" fill="#B1EC52"/>
<path d="M10.2478 15.1743C9.94072 13.8106 11.2774 12.6117 13.0114 12.6117C14.5738 12.6117 16.1363 12.9686 16.7233 15.1652H18.7193V18.524C16.2266 16.4465 10.8258 17.7461 10.2388 15.1652M30.9749 14.2316H26.4773L22.1964 18.9816V9.49994H18.7193V11.7971C18.6109 11.6507 18.4844 11.5043 18.349 11.3578C17.0846 10.0033 15.2602 9.31689 12.9392 9.31689C10.2478 9.31689 8.72147 10.5341 7.90864 11.5592C6.90615 12.8313 6.45458 14.5703 6.76165 15.9797C7.56545 19.6406 10.9161 20.2263 13.3817 20.5467C15.3234 20.8029 17.1839 21.1599 17.1388 22.9171C17.0846 24.7384 15.0615 25.1868 13.7339 25.1868C10.2658 25.1868 10.1484 22.5876 10.1484 22.5876H6.41846C6.47265 23.5669 6.76165 25.1228 7.94477 26.4681C9.2453 27.9417 11.1871 28.683 13.7249 28.683C15.6757 28.683 17.4458 28.0423 18.7193 26.8983V28.4725H22.1964V23.9879L23.4246 22.6242L26.9379 28.4725H30.984L25.8722 19.906L30.984 14.2316H30.9749Z" fill="#4D5759"/>
<path d="M47.2422 26.1021C47.4679 26.1845 47.7389 26.2211 48.0369 26.2211C48.4162 26.2211 48.7233 26.1021 48.9491 25.8642C49.1749 25.6262 49.3284 25.315 49.4007 24.9581L44.5869 14.3507H47.7931L50.8818 21.9562L53.5913 14.3507H56.6439L52.2998 24.7934C51.7308 26.1753 51.1437 27.2004 50.5025 27.8502C49.8613 28.5183 49.1568 28.8569 48.3801 28.8569C48.1182 28.8569 47.9105 28.8569 47.7389 28.8203C47.5492 28.802 47.3957 28.7563 47.2602 28.7197L46.899 28.6007C46.8086 28.5641 46.7093 28.5183 46.61 28.5V25.8184C46.7816 25.9374 46.9893 26.0381 47.2331 26.093" fill="white"/>
<path d="M61.8654 24.5279C61.6757 24.592 61.468 24.6286 61.2422 24.6835C61.0164 24.7201 60.7635 24.7659 60.5197 24.7842C60.2758 24.8208 60.0229 24.8208 59.7972 24.8208C59.2101 24.8208 58.7134 24.7567 58.2618 24.6652C57.8283 24.5462 57.449 24.3906 57.1419 24.1527C56.8348 23.9147 56.6091 23.6035 56.4555 23.21C56.302 22.8348 56.2297 22.3588 56.2297 21.8097V18.0207H58.8489V21.2697C58.8489 21.5626 58.885 21.8189 58.9663 22.0019C59.0205 22.2033 59.1379 22.3588 59.2914 22.4778C59.4449 22.5968 59.6165 22.6792 59.8423 22.7158C60.0681 22.7524 60.339 22.7707 60.6371 22.7707C61.0886 22.7707 61.4318 22.7341 61.7028 22.6517C61.9647 22.551 62.1815 22.4595 62.326 22.3588V18.0207H64.9451V28.5091H62.326V24.3723C62.2085 24.4089 62.064 24.473 61.8744 24.5279" fill="white"/>
<path d="M71.9093 23.6221C71.7377 23.7045 71.53 23.7777 71.268 23.8234L70.5636 23.9607C70.2565 24.0156 69.9946 24.0797 69.7688 24.1529C69.543 24.2353 69.3534 24.3268 69.1998 24.4458C69.0463 24.5831 68.9379 24.7387 68.8566 24.9217C68.7844 25.0956 68.7392 25.3152 68.7392 25.5898C68.7392 25.8095 68.7754 26.0017 68.8296 26.1572C68.9018 26.3311 69.0012 26.4501 69.1366 26.5691C69.254 26.6698 69.3805 26.7704 69.534 26.8071C69.7056 26.8711 69.8772 26.8894 70.0669 26.8894C70.1572 26.8894 70.2926 26.8711 70.4462 26.8528C70.5997 26.8345 70.7533 26.7979 70.9429 26.7338C71.1145 26.6515 71.2861 26.5782 71.4577 26.4593C71.6293 26.3586 71.7828 26.203 71.9093 26.0291C72.0628 25.8552 72.1712 25.6356 72.2525 25.361C72.3247 25.1047 72.3879 24.8119 72.3879 24.4549V23.3933C72.2344 23.4939 72.0628 23.5672 71.9183 23.6312M75.0612 27.2189C75.0793 27.4203 75.1335 27.5941 75.1967 27.6948C75.2509 27.8321 75.3141 27.9145 75.3864 27.9694C75.4586 28.0334 75.5218 28.0701 75.6122 28.0884V28.5185H72.7131L72.5595 28.0243C72.4873 27.8321 72.4692 27.5941 72.4692 27.2921L71.8822 27.9053C71.6745 28.0792 71.4667 28.2439 71.2229 28.3812C70.979 28.5185 70.7081 28.6375 70.392 28.7199C70.0759 28.8022 69.6875 28.8388 69.254 28.8388C68.8205 28.8388 68.378 28.7748 67.9987 28.6466C67.6193 28.5094 67.2942 28.2897 67.0142 28.0334C66.7523 27.7589 66.5175 27.4203 66.373 27.0084C66.2195 26.6149 66.1472 26.1389 66.1472 25.6081C66.1472 25.178 66.2014 24.7844 66.3369 24.4092C66.4723 24.0339 66.662 23.7228 66.8878 23.4482C67.1316 23.1736 67.4206 22.9357 67.7548 22.7618C68.098 22.5604 68.4773 22.4506 68.9108 22.3865L71.4667 21.993C71.557 21.9747 71.6564 21.9747 71.7738 21.9289C71.8912 21.9106 71.9815 21.874 72.0718 21.7916C72.1712 21.7367 72.2434 21.6544 72.2976 21.5537C72.3518 21.4347 72.3879 21.2974 72.3879 21.1235C72.3879 20.9496 72.3518 20.7849 72.3157 20.6476C72.2615 20.492 72.1622 20.373 72.0538 20.2724C71.9183 20.1534 71.7738 20.071 71.5661 20.0161C71.3584 19.9612 71.0874 19.9337 70.7894 19.9337C70.4281 19.9337 70.1662 19.9703 69.9585 20.0344C69.7327 20.1168 69.5611 20.2266 69.4437 20.3456C69.3082 20.4829 69.2179 20.6385 69.1547 20.794L69.0373 21.3615H66.4182C66.4182 21.2425 66.4362 21.0686 66.4723 20.8307C66.5085 20.611 66.5898 20.3547 66.6981 20.0802C66.7975 19.8239 66.96 19.5493 67.1497 19.2748C67.3394 19.0002 67.5832 18.7439 67.9264 18.506C68.2335 18.2863 68.6309 18.0941 69.0824 17.9569C69.534 17.8196 70.0669 17.7372 70.7081 17.7189C71.6022 17.7189 72.3338 17.8196 72.9027 17.9935C73.4536 18.1948 73.8872 18.4419 74.2123 18.7439C74.5194 19.0551 74.7271 19.3938 74.8355 19.769C74.9348 20.1442 74.989 20.5195 74.989 20.8947V26.4501C74.989 26.7704 75.0071 27.0176 75.0432 27.2189" fill="white"/>
<path d="M82.3691 20.9952C82.2969 20.7755 82.1795 20.6016 82.044 20.4643C81.8905 20.3088 81.7189 20.2081 81.5292 20.1257C81.3215 20.0708 81.0776 20.025 80.7886 20.025C80.3551 20.025 80.0119 20.1257 79.75 20.3362C79.4881 20.5559 79.2713 20.8121 79.1449 21.1233C78.9914 21.4619 78.9191 21.8097 78.8559 22.185C78.8198 22.5602 78.7836 22.9171 78.7836 23.2466C78.7836 23.5761 78.8017 23.9605 78.8378 24.3266C78.874 24.7201 78.9552 25.0588 79.0997 25.3699C79.2352 25.6811 79.4249 25.9648 79.7049 26.157C79.9668 26.3767 80.328 26.4682 80.7886 26.4682C81.0957 26.4682 81.3576 26.4133 81.5834 26.276C81.7911 26.157 81.9808 26.0014 82.1343 25.8184C82.2878 25.617 82.3962 25.4248 82.4775 25.2052C82.5317 25.0038 82.5768 24.8116 82.5768 24.6378H85.3043C85.3043 24.8116 85.2863 25.0313 85.2321 25.3059C85.1598 25.5987 85.0605 25.8733 84.925 26.1936C84.7895 26.4865 84.5999 26.8068 84.3922 27.118C84.1483 27.4383 83.8774 27.7129 83.5432 27.9417C83.2 28.198 82.8207 28.3993 82.3691 28.5549C81.9176 28.7105 81.3847 28.7929 80.7977 28.7929C80.039 28.7929 79.3526 28.6739 78.7656 28.4359C78.1785 28.1797 77.6818 27.8227 77.2844 27.356C76.887 26.88 76.58 26.3126 76.3723 25.5987C76.1645 24.9123 76.0471 24.1252 76.0471 23.2375C76.0471 22.3497 76.1645 21.5443 76.3903 20.8487C76.6161 20.1806 76.9412 19.5857 77.3567 19.119C77.7721 18.6431 78.2689 18.2861 78.8559 18.0573C79.4249 17.801 80.0842 17.6821 80.7886 17.6821C81.0957 17.6821 81.4118 17.7187 81.755 17.7644C82.0801 17.801 82.3962 17.9017 82.7213 18.0207C83.0465 18.158 83.3445 18.3136 83.6516 18.5149C83.9406 18.7163 84.2025 18.9634 84.4464 19.2654C84.6721 19.5583 84.8618 19.9152 85.0153 20.3088C85.1689 20.7023 85.2592 21.1782 85.3043 21.709H82.5768C82.5227 21.4345 82.4594 21.1782 82.3691 20.9769" fill="white"/>
<path d="M94.4434 18.0206V20.2263H91.3907V28.5091H88.7716V20.2263H85.719V18.0206H94.4434Z" fill="white"/>
<path d="M101.712 21.8006V18.0207H104.331V28.5091H101.712V24.0154H97.8645V28.5091H95.2544V18.0207H97.8645V21.8006H101.712Z" fill="white"/>
<path d="M108.74 24.4821L112.416 18.0206H115.171V28.5091H112.552V22.1757H112.516L108.948 28.5091H106.085V18.0206H108.704V24.4821H108.74Z" fill="white"/>
<path d="M123.345 18.0207H126.831L122.667 22.3771L127.002 28.5091H123.589L120.635 24.0703L119.57 25.196V28.5091H116.959V18.0207H119.57V22.0019L123.345 18.0207Z" fill="white"/>
</g>
<defs>
<clipPath id="clip0_27_74">
<rect width="127" height="38" fill="white"/>
</clipPath>
</defs>
</svg>
