<svg width="141" height="30" viewBox="0 0 141 30" fill="none" xmlns="http://www.w3.org/2000/svg">
<g clip-path="url(#clip0_27_43)">
<mask id="mask0_27_43" style="mask-type:luminance" maskUnits="userSpaceOnUse" x="0" y="0" width="141" height="30">
<path d="M140.754 0.240234H0.246094V29.4164H140.754V0.240234Z" fill="white"/>
</mask>
<g mask="url(#mask0_27_43)">
<path d="M37.1071 1.27539H35.25V8.27415H37.1071V1.27539Z" fill="#5EC5EE"/>
<path d="M37.1071 8.27441H35.25V15.2732H37.1071V8.27441Z" fill="#2588C3"/>
<path d="M37.1071 15.2729H35.25V22.2717H37.1071V15.2729Z" fill="#045D89"/>
<path d="M37.1071 22.2715H35.25V29.2702H37.1071V22.2715Z" fill="#E3EBF1"/>
<path d="M16.8123 14.3873C16.8053 14.3805 16.6384 14.2108 16.3498 14.2108C16.1968 14.2108 16.0403 14.2583 15.8838 14.3466C15.8559 14.3602 15.8385 14.3907 15.8455 14.4213C15.8455 14.428 15.9603 15.1883 15.8733 15.5142C15.8073 15.7585 15.5951 16.0471 15.209 16.0471C15.1256 16.0471 15.0421 16.0334 14.9517 16.0097H14.9482L15.2404 15.8163C15.2612 15.8026 15.2751 15.7789 15.2751 15.7518C15.2751 15.7246 15.2612 15.7042 15.2404 15.6873L14.6595 15.2969C14.8439 15.1612 14.9587 15.0661 14.9726 15.0526C14.99 15.039 15.0004 15.0186 15.0004 14.9982C15.0004 14.9779 14.9935 14.9575 14.976 14.9405L14.8717 14.8387C14.8578 14.8252 14.837 14.815 14.816 14.815C14.7987 14.815 14.7813 14.8218 14.7674 14.8319C14.7604 14.8353 14.6074 14.9507 14.3744 15.1068L14.1414 14.9507L15.0525 14.3398L15.1221 14.5163C15.1325 14.5434 15.1604 14.5638 15.1917 14.5638C15.1917 14.5638 15.1917 14.5638 15.1951 14.5638C15.2229 14.5638 15.2508 14.5468 15.2647 14.5231L15.6994 13.7424C15.7134 13.7152 15.7099 13.6847 15.6959 13.661C15.682 13.6405 15.6577 13.627 15.6299 13.627C15.6264 13.627 15.6229 13.627 15.6194 13.627L14.7222 13.7594C14.6909 13.7628 14.6665 13.7831 14.6561 13.8137C14.6491 13.8408 14.6561 13.8714 14.6805 13.8918L14.8265 14.0173L13.7901 14.7131L12.7572 14.0173L12.9033 13.8918C12.9241 13.8714 12.9346 13.8408 12.9242 13.8137C12.9172 13.7831 12.8928 13.7628 12.8616 13.7594L11.9642 13.627C11.9608 13.627 11.9573 13.627 11.9538 13.627C11.926 13.627 11.9017 13.6372 11.8877 13.661C11.8703 13.6847 11.8704 13.7152 11.8842 13.7424L12.3155 14.5231C12.3294 14.5468 12.3572 14.5638 12.3851 14.5638C12.3886 14.5638 12.3886 14.5638 12.3886 14.5638C12.4198 14.5638 12.4442 14.5434 12.4581 14.5163L12.5312 14.3398L13.4423 14.9507L13.2093 15.1068C12.9763 14.9507 12.8233 14.8353 12.8198 14.8319C12.8059 14.8218 12.7885 14.815 12.7711 14.815C12.7502 14.815 12.7294 14.8218 12.7155 14.8387L12.6112 14.9405C12.5972 14.9541 12.5868 14.9745 12.5868 14.9982C12.5868 15.0186 12.5972 15.039 12.6146 15.0526C12.632 15.0661 12.7468 15.1612 12.9311 15.2969L12.3503 15.6873C12.3294 15.7008 12.3155 15.7246 12.3155 15.7518C12.3155 15.7789 12.3294 15.7992 12.3503 15.8163L12.6424 16.0097C12.6424 16.0097 12.6424 16.0097 12.639 16.0097C12.5486 16.0334 12.4651 16.0471 12.3816 16.0471C11.9956 16.0471 11.7799 15.7585 11.7138 15.5142C11.6269 15.1883 11.7417 14.428 11.7417 14.4213C11.7452 14.3907 11.7312 14.3602 11.7034 14.3466C11.5434 14.2583 11.3869 14.2108 11.2374 14.2108C10.9453 14.2108 10.7783 14.3771 10.7714 14.3873C10.7575 14.3975 10.7505 14.4179 10.7505 14.4314C10.747 14.4789 10.6566 15.5752 11.1783 16.1319C11.3696 16.3355 11.6234 16.4408 11.926 16.4408C11.9782 16.4408 12.0373 16.4408 12.0929 16.4306C12.3886 16.3966 12.6772 16.3186 12.9589 16.2235L13.4423 16.5426L12.3747 17.2486C12.3538 17.2655 12.3399 17.2859 12.3399 17.3131C12.3399 17.3368 12.3503 17.3606 12.3747 17.3776L13.4458 18.1005L12.5312 18.7182L12.4616 18.5452C12.4512 18.518 12.4233 18.501 12.392 18.4976C12.392 18.4976 12.392 18.4976 12.3886 18.4976C12.3607 18.4976 12.3329 18.5146 12.319 18.5384L11.8877 19.319C11.8738 19.3428 11.8773 19.3767 11.8912 19.3971C11.9052 19.4174 11.9295 19.431 11.9573 19.431C11.9608 19.431 11.9642 19.431 11.9677 19.431L12.865 19.3021C12.8963 19.2987 12.9206 19.2749 12.9276 19.2477C12.9381 19.2172 12.9276 19.1866 12.9067 19.1663L12.7572 19.0373L13.7936 18.3381L14.8299 19.0373L14.6805 19.1663C14.6561 19.1866 14.6491 19.2172 14.6561 19.2477C14.663 19.2749 14.6909 19.2952 14.7222 19.3021L15.6194 19.431C15.6229 19.431 15.6264 19.431 15.6299 19.431C15.6542 19.431 15.6786 19.4208 15.6959 19.3971C15.7134 19.3733 15.7134 19.3428 15.6994 19.319L15.2647 18.5384C15.2508 18.5146 15.2264 18.4976 15.1951 18.4976H15.1917C15.1569 18.4976 15.1325 18.518 15.1221 18.5452L15.0525 18.7182L14.1379 18.1005L15.209 17.3776C15.23 17.364 15.2439 17.3402 15.2439 17.3131C15.2439 17.2859 15.23 17.2655 15.209 17.2486L14.1414 16.5426L14.6248 16.2235C14.903 16.322 15.1917 16.3966 15.4873 16.4306C15.5464 16.4374 15.602 16.4408 15.6542 16.4408C15.9603 16.4408 16.2107 16.3355 16.4019 16.1319C16.9236 15.5752 16.8332 14.4789 16.8297 14.4314C16.8297 14.4179 16.8228 14.4009 16.8123 14.3873ZM13.7866 15.1951L14.0162 15.3479C13.9431 15.392 13.8666 15.4395 13.7866 15.487C13.7066 15.4395 13.6301 15.3954 13.5571 15.3479L13.7866 15.1951ZM12.952 15.7552L13.2685 15.5413C13.3311 15.5787 13.3936 15.6194 13.4632 15.6635C13.338 15.728 13.2128 15.7891 13.0876 15.8468L12.952 15.7552ZM14.6039 17.3131L13.7866 17.8629L12.9728 17.3131L13.7866 16.7734L14.6039 17.3131ZM13.7866 16.3084L13.3936 16.0471C13.5327 15.9826 13.6615 15.9181 13.7866 15.8502C13.9118 15.9181 14.044 15.9826 14.1831 16.0471L13.7866 16.3084ZM14.4891 15.8468C14.364 15.7925 14.2353 15.7314 14.11 15.6635C14.1796 15.6228 14.2422 15.5821 14.3048 15.5413L14.6248 15.7552L14.4891 15.8468Z" fill="white"/>
<path d="M17.0859 15.0319C17.118 14.9708 17.1323 14.8554 17.1323 14.8554L17.0859 14.8418V15.0319Z" fill="white"/>
<path d="M27.362 12.3132C27.0282 12.1164 26.4752 12.0485 25.9118 12.0995C26.7917 11.8008 27.3933 11.1627 27.4246 10.5924C26.9656 10.4635 26.4891 10.5313 26.0753 10.623C26.503 10.3107 27.2055 9.74048 27.1186 8.90211C26.7047 8.80369 25.9466 9.08543 25.6301 9.22461C26.6456 8.66791 27.0108 7.35098 26.4717 6.6043C26.1518 6.78756 24.7015 8.2335 24.465 8.3998C25.2163 7.56143 25.5675 6.96065 25.7692 6.39724C26.0092 5.7829 26.0266 4.71034 25.2476 4.35056C24.8789 5.17195 23.5922 7.27969 22.8758 8.15543C22.7958 8.08754 22.7332 7.99591 22.6323 7.97889C22.4619 8.51178 21.9541 9.22121 21.4916 9.56061C21.4672 9.51645 21.4221 9.3943 21.3421 9.26191C20.8517 9.97806 19.5788 10.959 19.1685 11.5632C18.8485 12.0112 18.8485 12.4151 19.2937 12.8326C19.4745 13.009 19.8153 13.3179 19.5198 13.7524C19.1163 14.326 18.306 14.3939 17.8678 14.0545C17.8678 13.9527 17.8643 13.8542 17.8608 13.7626C18.379 13.5657 18.5007 12.8767 18.1182 12.449C18.0347 12.6052 17.8957 12.7206 17.7287 12.7782C17.6835 12.5984 17.6452 12.5135 17.6417 12.5033L17.6209 12.4626H17.5757C17.5722 12.4626 17.4017 12.4524 17.1479 12.4253C17.4366 12.3337 17.6209 12.0723 17.5792 11.7227C17.134 12.0961 16.6889 11.7396 16.588 11.6412C16.3098 11.3222 16.2298 10.9624 16.341 10.4125C16.435 9.93398 16.9427 9.17367 17.2766 8.9293C17.3253 8.97339 17.4017 9.06508 17.5652 9.05145C17.6592 9.02093 17.8157 8.94287 17.9339 8.89871C18.2712 8.8003 18.5981 8.87498 18.8068 9.00737C19.1893 9.23478 19.1546 9.48593 19.1441 9.66919C19.7249 9.35015 19.5232 8.81726 18.7616 8.62043C19.2833 8.62043 19.711 9.08543 19.8223 9.14315C20.111 9.35015 20.5248 9.30267 20.7648 9.19063C21.2273 8.97678 21.3212 8.44389 21.196 8.3353C21.1508 8.52541 21.0013 8.69511 20.7334 8.72563C20.337 8.76978 19.9545 8.60348 19.6519 8.47108C19.3945 8.36582 18.9807 8.28776 18.6989 8.30478C19.2206 8.02304 20.031 8.05356 20.3196 8.48804C20.4935 8.35226 20.6013 8.23011 20.65 7.94837C20.7995 7.18806 20.1909 6.79774 19.5406 6.79774C19.558 6.61448 19.4258 6.52285 19.2519 6.58389C19.2519 6.50586 19.2311 6.44476 19.1858 6.41421C19.1998 6.41421 19.2206 6.40742 19.2345 6.40742C19.8884 6.3633 20.5074 6.16644 20.8413 5.82363C21.4255 5.21268 20.4935 4.43881 20.8274 3.83805C21.1473 3.97381 21.3838 4.15031 21.8255 4.2114C21.8706 4.30305 21.9124 4.48633 21.9263 4.58476C22.0689 5.26359 21.3838 5.3756 21.5612 6.09855C21.6377 6.42779 21.8916 6.5398 21.975 6.93013C21.975 6.93013 22.0063 7.20163 21.7629 7.43928C22.3263 7.45285 22.6219 6.98784 22.448 6.55676C22.3715 6.38027 22.1767 6.21396 22.1767 6.00691C22.4654 6.38027 22.7227 6.36669 23.1678 6.22753C23.3696 6.16644 23.387 6.44137 23.2618 6.66202C23.5678 6.48549 23.6443 6.19699 23.6443 6.06801C23.6443 5.76253 23.4009 5.61998 23.1678 5.68107C23.0357 5.69465 22.7714 5.87115 22.754 5.61998C22.6984 5.18553 23.4009 5.2025 23.2583 4.5033C23.1818 4.1537 22.7819 3.96023 22.1593 3.88556C22.0967 3.82447 21.9402 3.67852 21.8567 3.55633C21.5159 3.00308 21.1612 2.85713 20.9491 2.96914C20.6987 3.09133 20.57 3.19655 20.3648 3.30516C20.2014 3.39002 20.0275 3.43414 19.9196 3.55633C19.6484 3.88556 19.9057 4.39468 20.0449 4.70695C20.1388 4.89023 20.3648 5.30771 20.264 5.61998C20.1527 5.99334 19.5232 6.22753 19.1407 6.3056C19.1163 6.3056 19.0989 6.31239 19.0746 6.31239V6.16644C19.1858 5.97636 19.2798 5.74896 19.3563 5.54192C19.6136 4.86987 19.2311 4.59834 18.6642 4.46936C18.5912 4.42523 18.5146 4.40826 18.4208 4.43881H18.4034L18.3895 4.55082L18.313 4.52706L18.3303 4.39129H18.2955C18.3616 4.34717 18.3895 4.2691 18.3895 4.19443C18.3895 4.11297 18.3581 4.04848 18.3269 4.00436H18.4034L18.372 3.97381C18.3581 3.94326 18.3269 3.91271 18.2782 3.8652C18.2643 3.85162 18.2469 3.82107 18.2469 3.8041C18.2608 3.81768 18.2782 3.83465 18.3095 3.84823C18.3408 3.87878 18.386 3.90932 18.4034 3.93987L18.4486 3.97042V3.35607L18.4034 3.39341C18.3895 3.40699 18.3408 3.43753 18.3095 3.47147C18.2782 3.50202 18.2643 3.50202 18.2469 3.5156C18.2469 3.50202 18.2608 3.48505 18.2782 3.4545C18.3269 3.42396 18.3581 3.37984 18.372 3.35607L18.4034 3.30855H17.7635L17.7947 3.35607C17.8261 3.37644 17.8643 3.42396 17.8956 3.4545C17.9095 3.48505 17.9269 3.50202 17.9408 3.5156C17.9234 3.50202 17.8956 3.50202 17.8782 3.47147C17.8226 3.44093 17.7947 3.41038 17.7635 3.39341L17.7391 3.35607V3.9806L17.7704 3.95005C17.8017 3.9195 17.833 3.88896 17.8852 3.85841C17.9026 3.84484 17.9304 3.82786 17.9478 3.81429C17.9304 3.82786 17.9165 3.85841 17.9026 3.87538C17.8713 3.9229 17.8296 3.95005 17.8017 3.98399L17.7704 4.01454H17.8713C17.8157 4.05866 17.8017 4.12315 17.8017 4.20461C17.8017 4.27929 17.833 4.35735 17.8852 4.40147H17.8713L17.8852 4.53724L17.8017 4.561L17.7843 4.44899H17.7704C17.6765 4.41845 17.6 4.43542 17.5374 4.47954C16.9601 4.60852 16.5775 4.88345 16.8349 5.5521C16.9149 5.75914 17.0088 5.98655 17.1236 6.17662V6.27505C16.5463 6.09177 15.5064 5.47403 15.2282 5.10068C15.1969 5.06334 15.1725 5.03279 15.1586 5.00903H15.1552L15.1656 4.60513C15.3673 4.27589 15.5482 3.87199 15.6872 3.50202C16.0524 2.53468 15.5134 2.13078 14.6579 1.96447C14.5709 1.90337 14.4631 1.87283 14.3205 1.92034L14.2892 2.07308L14.1084 2.0595L14.1223 1.86264C14.0979 1.86943 14.0666 1.86943 14.0353 1.86943C14.1571 1.80834 14.244 1.66239 14.244 1.51305C14.244 1.40443 14.1884 1.27545 14.0945 1.21436H14.244C14.1571 1.13968 14.018 0.980162 13.9902 0.871549C14.0979 0.902097 14.2614 1.04465 14.3379 1.12271V0.331877C14.2614 0.392972 14.0979 0.545709 13.9902 0.559286C14.018 0.471037 14.1571 0.3183 14.244 0.240234H13.4337C13.4963 0.3183 13.6528 0.471037 13.6667 0.559286C13.5728 0.545709 13.4163 0.392972 13.3293 0.331877V1.12271C13.4163 1.04465 13.5693 0.902097 13.6667 0.871549C13.6528 0.976764 13.4963 1.13629 13.4337 1.21436H13.5728C13.4789 1.27545 13.4337 1.40443 13.4337 1.51305C13.4337 1.66239 13.5102 1.81173 13.6354 1.86943C13.6041 1.86943 13.5728 1.86943 13.5241 1.85586L13.5415 2.05271L13.3607 2.06629L13.3433 1.91355C13.2042 1.86943 13.0964 1.89998 13.0024 1.95768C12.1539 2.12739 11.6148 2.5279 11.98 3.49523C12.1052 3.8652 12.2861 4.2725 12.5016 4.59834V5.01582C12.4877 5.02939 12.4704 5.05994 12.439 5.09049C12.1678 5.46385 11.121 6.08158 10.5437 6.26487V6.16644C10.6585 5.97636 10.7558 5.74896 10.8324 5.54192C11.0897 4.86987 10.7071 4.59834 10.1298 4.46936C10.0637 4.42523 9.9907 4.40826 9.89681 4.43881H9.88291L9.86553 4.55082L9.78902 4.52706L9.80292 4.39129H9.78902C9.83419 4.34717 9.86553 4.2691 9.86553 4.19443C9.86553 4.11297 9.85163 4.04848 9.80292 4.00436H9.89681L9.86553 3.97381C9.83419 3.94326 9.80292 3.91271 9.77164 3.8652C9.75768 3.85162 9.73335 3.82107 9.71598 3.8041C9.73335 3.81768 9.77164 3.83465 9.78554 3.84823C9.83072 3.87878 9.86206 3.90932 9.89681 3.93987L9.92815 3.97042V3.35607L9.89681 3.39341C9.86553 3.40699 9.83419 3.43753 9.78554 3.47147C9.77164 3.50202 9.73335 3.50202 9.71598 3.5156C9.73335 3.50202 9.7542 3.48505 9.77164 3.4545C9.80292 3.42396 9.83419 3.37984 9.86553 3.35607L9.89681 3.30855H9.25689L9.28824 3.35607C9.30213 3.37644 9.34383 3.42396 9.37517 3.4545C9.40645 3.48505 9.42035 3.50202 9.42035 3.5156C9.40992 3.49863 9.39255 3.49863 9.36475 3.46808C9.32646 3.43753 9.27781 3.40699 9.26384 3.39002L9.2152 3.35268V3.97721L9.26384 3.94666C9.27781 3.91611 9.32646 3.88556 9.36475 3.85502C9.39602 3.84144 9.40992 3.82447 9.42382 3.81089C9.42382 3.82447 9.40992 3.85502 9.37865 3.87199C9.34731 3.9195 9.30561 3.94666 9.29171 3.9806L9.26037 4.01115H9.34383C9.30561 4.05527 9.27079 4.11976 9.27079 4.20122C9.27079 4.27589 9.30213 4.35396 9.37517 4.39808H9.34383L9.36127 4.53384L9.27434 4.5576L9.26037 4.4456H9.24299C9.14911 4.41505 9.07259 4.43202 9.00998 4.47615C8.43268 4.60513 8.05011 4.88005 8.30752 5.5487C8.38751 5.75574 8.48139 5.98315 8.59613 6.17323V6.31918C8.57181 6.31918 8.55096 6.31239 8.53352 6.31239C8.15101 6.23432 7.5111 6.00013 7.40331 5.62676C7.30241 5.3145 7.52848 4.89702 7.62236 4.71374C7.77192 4.40147 8.02231 3.89235 7.75802 3.56312C7.63974 3.44093 7.46934 3.39681 7.30241 3.31195C7.10073 3.20673 6.9755 3.09812 6.71816 2.97593C6.51298 2.86392 6.16521 3.00647 5.81047 3.56312C5.73397 3.68531 5.57051 3.82786 5.50444 3.89235C4.88888 3.96702 4.49241 4.1571 4.40547 4.51009C4.26288 5.20929 4.96539 5.19571 4.92018 5.62676C4.90279 5.87794 4.63152 5.70144 4.50632 5.68786C4.26288 5.62676 4.02292 5.76932 4.02292 6.0748C4.02292 6.20378 4.10986 6.49228 4.40547 6.6688C4.28027 6.44815 4.29418 6.17323 4.50632 6.23432C4.95148 6.37348 5.19839 6.38706 5.49052 6.0137C5.49052 6.21735 5.30273 6.38706 5.21926 6.56354C5.04537 6.99802 5.33403 7.45963 5.90438 7.44606C5.64702 7.20848 5.69919 6.93691 5.69919 6.93691C5.77918 6.54658 6.02957 6.43458 6.11304 6.10534C6.28693 5.38239 5.59833 5.27038 5.74788 4.59155C5.76179 4.49312 5.79309 4.30984 5.84177 4.21819C6.28693 4.1571 6.53037 3.98399 6.83991 3.84484C7.15987 4.4456 6.23824 5.21947 6.82595 5.83042C7.16335 6.17323 7.78582 6.37009 8.43268 6.41421C8.44658 6.41421 8.46749 6.421 8.48487 6.42439C8.43963 6.45494 8.41531 6.51265 8.41531 6.59074C8.2449 6.52963 8.11272 6.62126 8.13711 6.80452C7.46586 6.80452 6.87466 7.19484 7.02074 7.95515C7.06592 8.23689 7.17724 8.35904 7.35807 8.49482C7.63974 8.06041 8.45005 8.02982 8.9787 8.31156C8.69002 8.29461 8.27618 8.37267 8.02231 8.47787C7.7232 8.60687 7.34417 8.77656 6.9477 8.73241C6.67296 8.70189 6.53384 8.53558 6.47821 8.34208C6.353 8.45074 6.4469 8.98017 6.91295 9.19741C7.1459 9.30945 7.55975 9.35693 7.84843 9.14993C7.95969 9.08882 8.38751 8.62721 8.91261 8.62721C8.15449 8.82404 7.94232 9.35693 8.53699 9.67598C8.51267 9.49271 8.48487 9.24156 8.8639 9.01415C9.07607 8.88515 9.40992 8.80708 9.7403 8.9055C9.85511 8.94965 10.0116 9.02771 10.1055 9.05824C10.269 9.07187 10.3455 8.98017 10.3941 8.93608C10.7314 9.18045 11.2218 9.94076 11.3297 10.4193C11.4479 10.9692 11.3609 11.3256 11.0793 11.648C10.9854 11.7464 10.5332 12.1028 10.0916 11.7295C10.0498 12.079 10.2341 12.337 10.5228 12.4321C10.2655 12.4592 10.0916 12.4694 10.0881 12.4694H10.0429L10.0255 12.5101C10.022 12.5169 9.98375 12.6052 9.9351 12.7816C9.77512 12.7206 9.63599 12.6085 9.55253 12.4524C9.16996 12.8801 9.28823 13.5657 9.80292 13.7626C9.79944 13.8576 9.79597 13.9561 9.79597 14.0613C9.35433 14.3939 8.55443 14.3226 8.15796 13.7524C7.85191 13.3179 8.20314 13.0056 8.37708 12.8326C8.8222 12.4151 8.8222 12.0112 8.49877 11.5632C8.08492 10.9624 6.81552 9.97806 6.32518 9.26191C6.24519 9.39091 6.19998 9.51306 6.18259 9.56061C5.72353 9.22121 5.20882 8.51178 5.03842 7.97889C4.94452 7.99252 4.87496 8.08754 4.79498 8.15543C4.08552 7.27969 2.7918 5.17195 2.42663 4.35056C1.65458 4.71034 1.66849 5.7829 1.90497 6.39724C2.11364 6.96065 2.46489 7.56143 3.20565 8.3998C2.97265 8.23011 1.52242 6.78756 1.20247 6.6043C0.666901 7.35098 1.03206 8.66791 2.04408 9.22461C1.73456 9.08543 0.969463 8.80369 0.555613 8.90211C0.479103 9.74048 1.17117 10.3107 1.59894 10.623C1.1816 10.5313 0.705158 10.4635 0.246094 10.5924C0.277394 11.1627 0.885998 11.8041 1.74152 12.0995C1.19552 12.0451 0.642556 12.1164 0.305216 12.3132C0.367815 12.9072 1.05641 13.4198 1.88063 13.5419C1.32767 13.603 0.83731 13.8406 0.579957 14.1665C0.882517 14.5534 1.32767 14.8521 2.00583 14.8385C1.84933 14.8928 1.66849 14.998 1.51547 15.1406C1.49808 15.127 1.46678 15.1101 1.43896 15.1101C1.40418 15.1236 1.39375 15.1711 1.40418 15.2017C1.40418 15.2017 1.40418 15.2017 1.40418 15.2255C1.33811 15.2696 1.30333 15.3239 1.29637 15.3782C1.23377 15.4664 1.1677 15.5682 1.13292 15.6599C1.1503 15.6667 1.16422 15.6837 1.17813 15.6905C1.17465 15.738 1.18856 15.7956 1.22682 15.8534C1.19552 15.884 1.1816 15.928 1.16422 15.9756L0.767752 15.8195C0.74689 16.1724 0.826879 16.4609 1.00772 16.6408C1.1503 16.8003 1.31376 16.7766 1.26507 16.8309L1.69631 17.0888C1.77282 17.2484 1.92932 17.2484 2.03713 17.2043C2.03713 17.2043 2.03713 17.2178 2.03713 17.2348C2.03713 17.4011 2.15537 17.5369 2.30839 17.5912C2.27709 17.7303 2.3397 17.8186 2.53445 17.8831L4.15507 21.7185C4.09247 21.9018 4.15507 22.0613 4.29766 22.1224C4.26288 22.1665 4.23506 22.214 4.23506 22.3057C4.29766 22.2616 4.39156 22.2446 4.43677 22.3735C4.46807 22.4652 4.29766 22.7605 4.55501 22.9608C4.52024 23.1372 4.61761 23.3171 4.80193 23.3952C4.80193 23.4869 4.88888 23.7821 4.90279 23.8874C4.78802 24.0469 4.52024 24.2913 4.55501 24.5594C4.58631 24.7495 4.66282 24.8106 4.81932 24.8581C4.75672 25.2009 4.95148 25.3537 5.24708 25.3706C5.24708 25.6218 5.48705 25.71 5.64355 25.727C5.79309 25.8356 5.85569 25.8797 6.0261 25.9646C5.8696 26.1445 5.98088 26.3821 6.26606 26.4601C6.29736 26.5653 6.37735 26.657 6.53732 26.6943C6.63122 26.8471 6.80162 26.8471 6.90246 26.8029C6.96508 26.7724 7.07641 26.5959 6.97898 26.4432C7.04159 26.3685 7.01032 26.2225 6.96508 26.1309C7.05896 25.9646 6.97898 25.7575 6.85034 25.6964C6.86771 25.6048 6.819 25.4588 6.78772 25.3706C7.01379 25.2314 7.29546 25.0583 7.3963 24.9972C7.94927 24.6103 8.57528 24.2641 9.28476 24.22C9.46559 24.203 9.79944 24.1895 9.98722 24.203C10.2759 24.2335 10.6724 24.3184 10.9054 24.1419C10.9784 24.0978 11.0236 24.0197 11.0097 23.945C10.9784 23.7685 10.7836 23.6158 10.721 23.4597C10.7036 23.4122 10.6758 23.3409 10.6445 23.2764C10.8463 23.3103 11.034 23.2832 11.1488 23.2289C11.274 23.1848 11.5766 22.9641 11.5627 22.6349C11.3192 22.7469 10.7349 22.8997 10.6724 22.3227C10.6098 21.8135 11.0688 21.379 11.7887 21.5691C12.279 21.6913 12.9955 22.7096 12.3417 23.1542C12.0217 23.368 11.5313 23.5717 11.594 24.1283C11.8026 23.8772 12.0843 23.755 12.4495 23.7855C11.9139 24.1724 11.5001 24.22 10.9367 24.5153C10.4463 24.797 10.0811 25.262 9.69513 25.2756C9.3995 25.2892 9.23604 24.9463 9.52473 24.6816C9.23604 24.6205 8.85347 24.8411 8.74569 25.1364C8.60656 25.5403 8.71441 25.8288 8.97175 25.9917C8.624 26.175 8.36311 26.5314 8.48834 27.0405C8.60656 27.458 9.03437 27.458 8.87092 27.9909C9.11088 27.9298 9.26732 27.7703 9.33688 27.5429C9.36822 27.3833 9.3995 27.217 9.47949 27.139C9.44474 27.458 9.63252 27.9298 10.0811 28.1437C10.3837 28.2896 10.8602 28.3473 11.2253 27.9773C11.3748 28.3948 11.8792 28.7546 12.4043 28.7376C12.6442 28.7376 12.8807 28.6358 13.0581 28.534C13.1833 28.8428 13.5033 29.1585 13.8197 29.3078C14.1466 29.1585 14.4665 28.8428 14.5987 28.534C14.7726 28.6392 15.0126 28.7376 15.2456 28.7376C15.7498 28.7512 16.282 28.3948 16.4245 27.9773C16.7897 28.3473 17.2662 28.2896 17.5687 28.1437C18.0139 27.9298 18.2016 27.458 18.1704 27.139C18.2538 27.217 18.2851 27.3833 18.3199 27.5429C18.3825 27.7703 18.5355 27.9298 18.7789 27.9909C18.6155 27.458 19.0537 27.458 19.1615 27.0405C19.2867 26.5314 19.0293 26.1716 18.6851 25.9917C18.9354 25.8322 19.0537 25.5437 18.9042 25.1364C18.7964 24.8411 18.4138 24.6205 18.1251 24.6816C18.4138 24.9463 18.2573 25.2892 17.9547 25.2756C17.5722 25.262 17.207 24.7936 16.7132 24.5153C16.1533 24.2166 15.7394 24.1724 15.2003 23.7855C15.5655 23.755 15.8542 23.8772 16.0559 24.1283C16.1185 23.5717 15.6282 23.368 15.3082 23.1542C14.6613 22.7096 15.3708 21.6913 15.8716 21.5691C16.581 21.379 17.0505 21.8135 16.9775 22.3227C16.901 22.903 16.3306 22.7503 16.0733 22.6349C16.0733 22.9608 16.3759 23.1814 16.501 23.2289C16.6471 23.2968 16.9184 23.3341 17.1583 23.2323C17.1514 23.29 17.1409 23.3511 17.1409 23.368C17.0923 23.8636 16.821 23.9077 16.9149 24.1114C17.047 24.2641 17.92 24.2335 18.1565 24.2811C18.5703 24.3354 18.9215 24.4847 19.318 24.5628C19.7632 24.6545 20.2361 24.6545 20.6361 24.814C20.8934 24.9226 21.1821 25.1262 21.4325 25.2484C21.8151 25.3095 21.7524 25.4622 21.9959 25.4622C22.215 25.4622 22.2985 25.279 22.5801 25.2043C22.7749 25.1602 22.994 25.2348 23.1888 25.1737C23.3313 25.1432 23.3939 25.0006 23.5261 24.9226C23.6826 24.8309 23.9016 24.8309 24.0477 24.6985C24.1242 24.6306 24.1416 24.5017 24.1277 24.4101L24.1312 24.4304C24.4303 24.2268 24.6564 23.9281 24.7815 23.5853C24.858 23.5717 24.9207 23.5038 24.9207 23.4258C24.9207 23.4122 24.9207 23.3952 24.9207 23.3952C24.9972 23.3341 25.0458 23.2424 25.0458 23.1508C25.0458 23.0354 25.0006 22.9438 24.9207 22.8691C24.9207 22.8691 24.9207 22.8521 24.9207 22.8385C24.9207 22.7774 24.8894 22.7333 24.858 22.6926C24.7329 22.0308 24.2181 21.4979 23.5539 21.3316C23.5539 21.3146 23.5539 21.3146 23.5539 21.301H23.54C23.54 21.2705 23.5261 21.2535 23.5018 21.2535C23.4078 21.1619 23.2966 21.0193 23.2827 20.9277C23.3904 20.9582 23.5713 21.1245 23.6652 21.1924V20.3167C23.5713 20.3846 23.3939 20.5509 23.2827 20.5814C23.2966 20.4728 23.467 20.2827 23.5539 20.2081H22.6427C22.7262 20.2827 22.9001 20.4728 22.914 20.5814C22.8062 20.5509 22.6254 20.3846 22.535 20.3167V21.1924C22.6288 21.1245 22.8062 20.9582 22.914 20.9277C22.9001 21.0363 22.7262 21.2263 22.6427 21.301L22.674 21.3146C21.9959 21.4673 21.4499 22.0172 21.3247 22.6926C21.2794 22.73 21.2482 22.7774 21.2482 22.8385C21.2482 22.8521 21.2482 22.8691 21.2482 22.8691C21.1682 22.9438 21.1229 23.0354 21.1229 23.1508C21.1229 23.239 21.1682 23.3341 21.2482 23.3952C21.2482 23.3952 21.2482 23.4088 21.2482 23.4258C21.2482 23.5242 21.3108 23.5717 21.3872 23.5853C21.4186 23.6701 21.4568 23.755 21.4986 23.8297C21.4986 23.8229 21.4986 23.8229 21.509 23.8127C21.4533 24.0638 21.1403 24.2166 21.0708 24.2166C20.5144 24.2947 19.8988 24.0638 19.3389 23.8602C19.0919 23.7685 18.7546 23.6633 18.5912 23.4258C18.4903 23.2527 18.4451 23.144 18.4973 22.9913C18.5599 23.066 18.6607 23.1508 18.8033 23.2255C18.8172 23.1508 18.8172 23.066 18.8485 23.0048C18.9911 23.2119 19.2172 23.3171 19.4884 23.3035C19.325 23.1678 19.2484 22.808 19.325 22.4958C19.551 22.8691 20.41 22.9438 20.5665 22.2751C20.2465 22.4211 20.0414 22.2616 19.9823 22.0919C19.8884 21.8237 20.2014 21.1754 19.9196 20.6765C19.6936 20.3032 19.4362 20.0757 18.8381 19.984C18.8833 19.9128 18.9007 19.8517 18.9146 19.7465C18.3616 19.9433 17.8852 19.7906 17.6592 19.3595C17.7704 19.4037 17.9304 19.4206 18.0869 19.4206C17.5965 19.0303 17.6278 17.9272 17.9791 17.357C18.0243 17.3264 18.0417 17.2959 18.0869 17.2823C18.1947 17.4961 18.5146 17.4961 18.6781 17.6693C18.7407 17.6082 18.772 17.5912 18.8346 17.5403C18.8346 17.5403 18.8485 18.4465 18.9111 18.8198C18.9737 19.2374 19.3876 19.1932 19.5997 19.3765C19.8501 19.1084 20.3022 19.1219 20.2326 18.6603C20.1701 18.1987 20.0761 17.7779 20.0622 17.4656C20.2014 17.7473 20.4761 18.8063 20.5839 19.1084C20.7613 19.5564 21.2064 19.4206 21.4568 19.5971C21.6203 19.2848 22.0341 19.1932 21.8706 18.7214C21.8255 18.5993 21.1473 17.2077 21.0464 16.9395C21.2864 17.2823 21.9437 18.5076 22.1454 18.8504C22.3715 19.2068 22.7853 19.0337 23.0809 19.1219C23.1366 18.864 23.5365 18.5653 23.2444 18.1173C22.8792 17.5233 22.0202 16.4881 21.975 16.3421C22.1454 16.5016 23.4774 18.1173 23.5817 18.2055C23.8912 18.4703 24.3434 18.2666 24.6111 18.2666C24.6111 17.9713 24.8511 17.6353 24.5033 17.2925C24.1834 16.9938 23.4496 16.4847 23.2931 16.3116C23.7834 16.6408 24.3607 17.1635 24.705 17.2484C25.3137 17.4011 25.5327 17.1635 25.7588 17.0719C25.571 16.5322 25.8214 16.2811 24.5346 15.755C25.6475 16.1419 26.1413 15.9518 26.5378 15.6463C26.3813 15.2594 25.9848 14.9335 25.6614 14.825C26.343 14.8385 26.7952 14.5432 27.0908 14.1529C26.8404 13.8271 26.343 13.5895 25.7727 13.5284C26.6143 13.4164 27.2855 12.9072 27.362 12.3132ZM1.54677 16.3014C1.53285 16.3014 1.53285 16.315 1.51547 16.3319C1.42157 16.3184 1.42157 16.2098 1.43896 16.1181C1.48417 16.1181 1.51547 16.1045 1.54677 16.074L1.56068 16.091L1.51547 16.1215C1.53285 16.1792 1.53285 16.2403 1.54677 16.3014ZM1.85281 16.9395L1.69979 16.8513C1.76239 16.78 1.82151 16.78 1.88411 16.8207C1.88411 16.8648 1.88411 16.909 1.85281 16.9395ZM2.31187 15.9892C2.29101 15.9892 2.27014 15.9892 2.24927 15.9892C2.24579 15.9858 2.24232 15.979 2.23884 15.9756C2.26666 15.9688 2.29796 15.9688 2.32231 15.962C2.32231 15.9688 2.31535 15.979 2.31187 15.9892ZM11.1558 27.1084C10.7732 27.1084 10.502 26.8742 10.6967 26.545C10.7975 26.6943 10.9993 26.7622 11.1732 26.7792C11.1558 26.9353 11.1558 26.9795 11.1558 27.1084ZM16.974 26.545C17.1688 26.8742 16.8975 27.1084 16.515 27.1084C16.515 26.9795 16.515 26.9353 16.4836 26.7792C16.661 26.7656 16.8697 26.7011 16.974 26.545ZM11.1419 6.39724C12.0147 6.21396 12.9051 5.73538 13.305 5.33147C13.6354 5.35184 14.0631 5.35523 14.3866 5.33487C14.7795 5.74217 15.656 6.21056 16.5324 6.39385C16.0246 6.39385 15.1378 6.34973 15.0265 6.22753C15.0578 6.5398 15.7359 6.89276 16.1811 6.98785C15.8125 7.03193 15.4717 6.98784 15.183 6.85884C15.3395 7.07948 15.5203 7.24578 15.8159 7.34419C15.5064 7.71756 14.8665 7.95854 14.2336 7.90082C14.39 8.08415 14.6787 8.19952 14.9291 8.16561C14.3588 9.05145 13.938 9.96111 13.8371 11.0133H13.8336V11.0167C13.7397 9.96111 13.3189 9.05145 12.752 8.16561C13.0094 8.19613 13.2911 8.08415 13.4372 7.90082C12.7973 7.96193 12.1817 7.71756 11.8617 7.34419C12.1608 7.24578 12.3382 7.07948 12.4947 6.85884C12.213 6.98784 11.8617 7.03193 11.4966 6.98785C11.9417 6.88937 12.6269 6.5398 12.6581 6.22753C12.5364 6.35312 11.6496 6.39724 11.1419 6.39724ZM3.13957 15.7617C3.05958 15.7957 2.96221 15.8364 2.88917 15.8669C2.88917 15.8601 2.88917 15.8534 2.88917 15.8466C2.96569 15.8161 3.06307 15.7889 3.13957 15.7617ZM8.75264 19.7498C8.77001 19.8551 8.78398 19.9162 8.82915 19.9874C8.22753 20.0791 7.97366 20.3065 7.75454 20.6798C7.44849 21.1822 7.76844 21.8305 7.6815 22.0953C7.61889 22.2616 7.42069 22.4245 7.10073 22.2785C7.25723 22.9506 8.11272 22.8725 8.33879 22.4992C8.41531 22.8114 8.33879 23.1712 8.18229 23.3069C8.45005 23.3205 8.67612 23.2153 8.81525 23.0082C8.84652 23.0693 8.84652 23.1542 8.86042 23.2289C9.00998 23.1542 9.10387 23.0693 9.16648 22.9947C9.19087 23.0693 9.21867 23.2458 9.18386 23.3884C9.06912 23.4631 8.94041 23.5343 8.73874 23.6362C8.41878 23.789 7.83453 24.0095 7.50068 24.0537C7.22589 24.0978 6.74943 23.945 6.62775 23.5717C6.51646 23.2153 6.21389 23.0999 5.97393 23.3205C5.91133 23.2764 5.74092 23.2424 5.66789 23.3545C5.66789 23.3545 5.59138 23.1848 5.49748 23.1033C5.56008 22.92 5.51139 22.6994 5.34098 22.6247C5.32707 22.265 5.10102 22.265 5.02103 22.1427C4.97582 22.0681 4.97582 21.973 5.08363 21.9595C5.03842 21.8916 4.94104 21.878 4.92713 21.878C4.95843 21.7253 4.90974 21.5352 4.70108 21.4741L2.85092 17.7473C2.96916 17.6251 2.90656 17.4487 2.77441 17.3875C2.77441 17.3875 2.77441 17.374 2.77441 17.357C2.78484 17.3264 2.78832 17.3061 2.7918 17.2823C2.84049 17.2755 2.90309 17.2619 2.95525 17.2484C3.32041 17.1635 3.89076 16.6408 4.3846 16.3116C4.21072 16.4881 3.4943 16.9972 3.17435 17.2925C2.87527 17.581 3.00046 17.8695 3.04915 18.1308L3.1187 18.2768C3.38997 18.2938 3.79687 18.4533 4.09943 18.2089C4.19333 18.1173 5.52878 16.5016 5.70615 16.3455C5.63659 16.4915 4.79498 17.5267 4.41243 18.1206C4.13073 18.5687 4.54458 18.864 4.59327 19.1253C4.89583 19.0337 5.30968 19.2102 5.52878 18.8538C5.74092 18.511 6.38778 17.2857 6.62775 16.9429C6.53384 17.2111 5.84873 18.6027 5.80004 18.7248C5.63659 19.1966 6.05044 19.2882 6.21389 19.6005C6.46429 19.424 6.91295 19.5632 7.08683 19.1118C7.19462 18.8097 7.46934 17.7507 7.61194 17.469C7.59456 17.7813 7.50068 18.2021 7.43806 18.6637C7.37545 19.1287 7.82063 19.1118 8.05365 19.3799C8.27965 19.1966 8.6935 19.2408 8.75611 18.8232C8.81873 18.4499 8.83263 17.5437 8.83263 17.5437C8.89524 17.598 8.92651 17.6116 8.99608 17.6727C9.14911 17.4961 9.47254 17.4961 9.58033 17.2857C9.62904 17.2993 9.64294 17.3298 9.69166 17.3604C10.0429 17.9306 10.0707 19.0337 9.58033 19.424C9.72293 19.424 9.90028 19.4071 10.0081 19.3629C9.79249 19.794 9.30908 19.9467 8.75264 19.7498ZM12.2095 24.9633C11.9209 25.3503 11.6948 25.6319 11.507 26.114C11.1697 26.0834 11.2358 25.6795 11.3436 25.4758C11.5696 25.0719 12.4877 24.5458 12.9503 24.0197C12.7451 24.3558 12.4599 24.6612 12.2095 24.9633ZM13.2076 25.6795C13.0199 26.3922 12.8877 27.4445 12.9503 27.9162C12.3034 27.587 12.6686 26.3176 12.919 25.7711C13.2668 25.0108 13.5102 24.0808 13.5902 23.4869C13.7919 23.9382 13.3433 25.1975 13.2076 25.6795ZM14.7205 27.9162C14.783 27.4445 14.6579 26.3922 14.4631 25.6795C14.3275 25.1975 13.8823 23.9382 14.0806 23.4869C14.1571 24.0808 14.4005 25.0074 14.7518 25.7711C15.0021 26.3176 15.3673 27.587 14.7205 27.9162ZM16.3271 25.4724C16.4385 25.6795 16.501 26.08 16.1637 26.1105C15.9759 25.6285 15.7498 25.3503 15.4717 24.9599C15.2108 24.6612 14.9256 24.3524 14.7205 24.0163C15.1795 24.5458 16.1011 25.0685 16.3271 25.4724ZM16.2472 20.0248C15.4021 21.6269 13.8545 22.9302 13.8371 22.9132C13.8197 22.9336 12.2721 21.6269 11.427 20.0248C10.582 18.4261 10.0394 15.9111 10.0116 14.7095C9.98027 13.508 10.2237 12.9955 10.2237 12.9955C10.2237 12.9955 11.2809 12.9378 12.1261 12.6527C12.8424 12.4117 13.6215 11.7974 13.8406 11.6174C14.0596 11.7974 14.8387 12.4083 15.5586 12.6527C16.4002 12.9412 17.4574 12.9955 17.4574 12.9955C17.4574 12.9955 17.6974 13.5114 17.6661 14.7095C17.6313 15.9111 17.0888 18.4261 16.2472 20.0248Z" fill="white"/>
<path d="M45.1914 16.2846C45.7235 16.1725 46.3043 16.0945 46.9338 16.0538C47.5633 16.0096 48.1789 15.9893 48.7909 15.9893C49.4378 15.9893 50.0951 16.0436 50.7594 16.1556C51.4271 16.2676 52.0322 16.4712 52.5783 16.7699C53.1243 17.0686 53.5694 17.4793 53.9207 18.0054C54.2685 18.5315 54.4459 19.2103 54.4459 20.0385C54.4459 20.8191 54.2858 21.4844 53.9694 22.0343C53.6529 22.5841 53.2286 23.0355 52.7035 23.3817C52.1783 23.728 51.5732 23.9825 50.895 24.142C50.2168 24.3015 49.5143 24.383 48.7909 24.383C48.7144 24.383 48.5962 24.3796 48.4397 24.3728C48.2797 24.366 48.1163 24.3593 47.9459 24.3559C47.7754 24.3491 47.6085 24.3389 47.452 24.3287C47.292 24.3151 47.1772 24.3049 47.1007 24.2914V29.1586H45.1984V16.2846H45.1914ZM48.8466 17.6218C48.5023 17.6218 48.1719 17.6286 47.8485 17.6388C47.525 17.6524 47.2746 17.683 47.0972 17.7304V22.6554C47.1599 22.6791 47.2642 22.6962 47.4103 22.7029C47.5563 22.7097 47.7094 22.7165 47.8659 22.7301C48.0258 22.7436 48.1754 22.747 48.3214 22.747C48.4675 22.747 48.5788 22.747 48.6553 22.747C49.1109 22.747 49.563 22.7131 50.0082 22.6452C50.4533 22.5773 50.8533 22.4483 51.2185 22.2515C51.5801 22.0546 51.8723 21.7831 52.0949 21.4267C52.3175 21.0737 52.4287 20.6155 52.4287 20.052C52.4287 19.5633 52.3209 19.1628 52.1053 18.8438C51.8896 18.5281 51.6115 18.277 51.2672 18.0936C50.9263 17.9104 50.5403 17.7848 50.116 17.7169C49.6882 17.6558 49.2639 17.6218 48.8466 17.6218Z" fill="white"/>
<path d="M54.8789 24.2912C54.8789 23.4867 54.9868 22.7638 55.2023 22.1257C55.418 21.4875 55.7345 20.9445 56.1553 20.4999C56.5726 20.0552 57.0839 19.7125 57.689 19.4783C58.2906 19.244 58.9793 19.1252 59.7548 19.1252C60.5651 19.1252 61.2781 19.2542 61.8867 19.5156C62.4953 19.7769 63.0031 20.1367 63.41 20.6017C63.8169 21.0667 64.116 21.6098 64.3142 22.2377C64.5125 22.8622 64.6098 23.5478 64.6098 24.2912C64.6098 25.082 64.4985 25.7948 64.276 26.4261C64.0534 27.0574 63.7369 27.597 63.3231 28.0417C62.9092 28.4864 62.4014 28.8291 61.7997 29.0633C61.1981 29.2975 60.5164 29.4164 59.7548 29.4164C58.9167 29.4164 58.1933 29.2874 57.5846 29.026C56.9761 28.7646 56.4717 28.4083 56.0718 27.9501C55.6718 27.4919 55.3728 26.9488 55.178 26.3243C54.9763 25.6997 54.8789 25.0209 54.8789 24.2912ZM56.7813 24.2912C56.7813 24.7494 56.8335 25.1974 56.9413 25.6386C57.0491 26.0799 57.2195 26.4702 57.4595 26.8198C57.6994 27.1694 58.0055 27.4443 58.3811 27.6548C58.7567 27.8652 59.2192 27.9704 59.7722 27.9704C61.7267 27.9704 62.704 26.7451 62.704 24.2946C62.704 23.8125 62.6518 23.3475 62.544 22.8996C62.4362 22.4549 62.2692 22.0612 62.0362 21.7217C61.8032 21.3824 61.5007 21.1075 61.1251 20.8936C60.7495 20.6832 60.2973 20.578 59.7722 20.578C58.795 20.578 58.0541 20.8834 57.5464 21.4978C57.0351 22.1053 56.7813 23.0387 56.7813 24.2912Z" fill="white"/>
<path d="M74.201 28.4864C73.7559 28.7953 73.2374 29.0295 72.6393 29.1822C72.0412 29.3384 71.4151 29.4164 70.7542 29.4164C69.9162 29.4164 69.2032 29.2908 68.6118 29.0431C68.021 28.7953 67.5446 28.4491 67.1757 28.0045C66.807 27.5598 66.5428 27.0202 66.3758 26.3889C66.2124 25.7576 66.1289 25.0584 66.1289 24.2913C66.1289 22.6451 66.5393 21.3723 67.3568 20.4728C68.1741 19.5768 69.3529 19.1253 70.8865 19.1253C71.5581 19.1253 72.1421 19.1831 72.6393 19.3018C73.1331 19.4206 73.5782 19.5666 73.9711 19.7397L73.5194 21.1313C73.1786 20.9582 72.8097 20.8224 72.4134 20.724C72.0172 20.6255 71.5855 20.5747 71.1197 20.5747C69.0642 20.5747 68.0384 21.8135 68.0384 24.2913C68.0384 24.7631 68.0939 25.2179 68.2088 25.6557C68.3231 26.0969 68.5042 26.4873 68.7581 26.8267C69.0121 27.1661 69.3422 27.4444 69.7491 27.6549C70.1594 27.8653 70.6606 27.9705 71.252 27.9705C71.7806 27.9705 72.2464 27.8992 72.6426 27.7567C73.0396 27.6142 73.3697 27.4444 73.6377 27.2476L74.201 28.4864Z" fill="white"/>
<path d="M83.0685 28.4864C82.6235 28.7952 82.1049 29.0294 81.5068 29.1822C80.9087 29.3383 80.2826 29.4164 79.6217 29.4164C78.7837 29.4164 78.0707 29.2907 77.4793 29.043C76.8886 28.7952 76.4121 28.449 76.0432 28.0044C75.6744 27.5597 75.4104 27.0201 75.2433 26.3888C75.0796 25.7575 74.9961 25.0583 74.9961 24.2912C74.9961 22.645 75.4071 21.3722 76.2243 20.4727C77.0416 19.5767 78.2204 19.1252 79.754 19.1252C80.4256 19.1252 81.0096 19.183 81.5068 19.3017C82.0007 19.4205 82.4457 19.5665 82.8386 19.7396L82.3869 21.1312C82.0461 20.9581 81.6772 20.8223 81.281 20.7239C80.884 20.6254 80.453 20.5746 79.9872 20.5746C77.9317 20.5746 76.9059 21.8134 76.9059 24.2912C76.9059 24.763 76.9614 25.2178 77.0763 25.6556C77.1906 26.0969 77.3717 26.4872 77.6256 26.8266C77.8762 27.166 78.2097 27.4443 78.62 27.6548C79.031 27.8652 79.5315 27.9704 80.1229 27.9704C80.6515 27.9704 81.1172 27.8991 81.5135 27.7566C81.9104 27.6141 82.2406 27.4443 82.5052 27.2475L83.0685 28.4864Z" fill="white"/>
<path d="M91.7474 23.5851L92.0147 21.6539H91.8062L90.874 23.4731L86.1929 29.1583H84.8438V19.4036H86.5966V25.16L86.4642 26.8707H86.6727L87.5495 25.2178L92.1363 19.4036H93.5069V29.1549H91.7541V23.5851H91.7474Z" fill="white"/>
<path d="M102.993 23.5851L103.261 21.6539H103.052L102.121 23.4731L97.4397 29.1583H96.0898V19.4036H97.8393V25.16L97.707 26.8707H97.9162L98.7922 25.2178L103.38 19.4036H104.75V29.1549H102.997V23.5851H102.993Z" fill="white"/>
<path d="M55.9421 5.28395L56.1472 3.36286H56.0464L55.2708 5.11764L51.56 10.8979H51.0488L47.1154 5.10067L46.3816 3.36286H46.2807L46.5659 5.26359V13.878H44.9766V1.0752H46.2389L50.7045 7.62254L51.3757 9.04806H51.4175L52.0504 7.58517L56.3107 1.0752H57.6358V13.8746H55.9421V5.28395Z" fill="white" stroke="white" stroke-width="0.559211" stroke-miterlimit="10"/>
<path d="M67.2985 8.46431L67.3607 7.33064H67.2985L66.4637 8.50168L61.8765 13.878H60.9375V4.73413H62.5686V10.3107L62.5059 11.3901H62.5859L63.3823 10.2564L67.9695 4.73413H68.9257V13.878H67.2952V8.46431H67.2985Z" fill="white" stroke="white" stroke-width="0.559211" stroke-miterlimit="10"/>
<path d="M78.3058 9.83557H73.6976V13.878H72.0664V4.73413H73.6976V8.55594H78.3058V4.73413H79.937V13.878H78.3058V9.83557Z" fill="white" stroke="white" stroke-width="0.559211" stroke-miterlimit="10"/>
<path d="M92.2279 16.1995H91.1253L90.8192 13.8779H83.0742V4.73404H84.7054V12.5983H89.1292V4.73404H90.7604V12.5983H92.2279V16.1995Z" fill="white" stroke="white" stroke-width="0.559211" stroke-miterlimit="10"/>
<path d="M100.607 8.46431L100.67 7.33064H100.607L99.7725 8.50168L95.185 13.878H94.2461V4.73413H95.8773V10.3107L95.8145 11.3901H95.898L96.6945 10.2564L101.282 4.73413H102.238V13.878H100.607V8.46431Z" fill="white" stroke="white" stroke-width="0.559211" stroke-miterlimit="10"/>
<path d="M109.962 13.9492C109.728 14.0239 109.488 14.0646 109.239 14.0782C108.988 14.0918 108.758 14.0952 108.557 14.0952C107.319 14.0952 106.369 13.7048 105.701 12.9242C105.034 12.1435 104.703 10.9386 104.703 9.30267C104.703 7.7413 105.069 6.56693 105.806 5.77271C106.539 4.98187 107.6 4.58476 108.985 4.58476C109.363 4.58476 109.69 4.60852 109.962 4.65943V1.0752H111.513V4.6764C111.756 4.63906 111.975 4.61531 112.167 4.60173C112.358 4.58815 112.539 4.58476 112.716 4.58476C114.062 4.58476 115.074 4.93436 115.752 5.63694C116.43 6.33954 116.771 7.50032 116.771 9.11934C116.771 9.88643 116.681 10.5788 116.496 11.1932C116.312 11.8075 116.045 12.3303 115.69 12.7579C115.335 13.1856 114.904 13.5148 114.396 13.7456C113.885 13.9764 113.297 14.0918 112.633 14.0918C112.511 14.0918 112.33 14.0816 112.093 14.0646C111.857 14.0477 111.662 14.0137 111.513 13.9628V17.5301H109.962V13.9492ZM108.963 12.8903C109.127 12.8903 109.291 12.8835 109.454 12.8733C109.617 12.8597 109.794 12.836 109.982 12.7986V5.86775C109.819 5.84399 109.666 5.82362 109.523 5.81344C109.381 5.79986 109.207 5.79647 109.005 5.79647C108.163 5.79647 107.506 6.07818 107.037 6.64839C106.568 7.21526 106.334 8.1011 106.334 9.30945C106.334 9.82193 106.386 10.2971 106.487 10.735C106.588 11.1728 106.748 11.5564 106.967 11.8788C107.183 12.2013 107.461 12.4524 107.792 12.6289C108.122 12.802 108.515 12.8903 108.963 12.8903ZM112.407 5.79308C112.243 5.79308 112.097 5.79647 111.968 5.80326C111.839 5.81005 111.68 5.8372 111.488 5.88472V12.8326C111.624 12.8563 111.777 12.8733 111.948 12.8767C112.118 12.8835 112.306 12.8869 112.508 12.8869C113.377 12.8869 114.034 12.5645 114.476 11.9161C114.917 11.2713 115.14 10.3379 115.14 9.11934C115.14 8.08415 114.939 7.26952 114.538 6.67897C114.139 6.09176 113.429 5.79308 112.407 5.79308Z" fill="white" stroke="white" stroke-width="0.559211" stroke-miterlimit="10"/>
<path d="M119.237 4.73404H120.357L120.663 5.83036H120.743C121.056 5.4027 121.46 5.07686 121.957 4.85284C122.454 4.62883 123.021 4.51343 123.658 4.51343C125.018 4.51343 126.029 4.87321 126.694 5.59277C127.358 6.31233 127.692 7.49014 127.692 9.12273C127.692 9.88975 127.58 10.5822 127.354 11.1965C127.129 11.8109 126.815 12.3336 126.405 12.7613C125.998 13.1889 125.504 13.5181 124.927 13.7489C124.35 13.9797 123.706 14.0952 123 14.0952C122.496 14.0952 122.099 14.068 121.807 14.0137C121.515 13.9594 121.199 13.8644 120.858 13.7286V17.5334H119.227V4.73404H119.237ZM123.355 5.79303C122.663 5.79303 122.113 5.95594 121.714 6.27839C121.313 6.60083 121.032 7.09296 120.868 7.75146V12.286C121.112 12.4558 121.39 12.5881 121.703 12.6797C122.016 12.7714 122.43 12.8155 122.948 12.8155C123.887 12.8155 124.631 12.5033 125.181 11.8754C125.731 11.2474 126.005 10.3242 126.005 9.1057C126.005 8.60679 125.956 8.15196 125.862 7.74468C125.769 7.3374 125.616 6.98777 125.403 6.70264C125.191 6.41755 124.92 6.19354 124.59 6.03401C124.256 5.87449 123.845 5.79303 123.355 5.79303Z" fill="white" stroke="white" stroke-width="0.559211" stroke-miterlimit="10"/>
<path d="M131.896 8.22672C132.224 8.17918 132.536 8.14527 132.836 8.12492C133.134 8.1079 133.42 8.09772 133.691 8.09772C134.383 8.09772 134.964 8.16901 135.433 8.30818C135.903 8.44736 136.278 8.64079 136.564 8.88516C136.849 9.12959 137.05 9.41805 137.165 9.75412C137.28 10.0901 137.339 10.4465 137.339 10.8232C137.339 11.9332 136.995 12.7375 136.31 13.2365C135.625 13.7354 134.512 13.9866 132.978 13.9866C132.109 13.9866 131.205 13.9493 130.266 13.878V4.73413H131.896V8.22672ZM131.896 12.5984C132.397 12.6731 132.88 12.707 133.343 12.707C134.199 12.707 134.797 12.5577 135.138 12.259C135.479 11.9603 135.649 11.5361 135.649 10.9896C135.649 10.5008 135.482 10.1003 135.148 9.78125C134.814 9.46559 134.234 9.30607 133.406 9.30607C133.172 9.30607 132.923 9.31286 132.651 9.32303C132.38 9.33659 132.129 9.37057 131.896 9.43168V12.5984ZM138.949 4.73413H140.581V13.878H138.949V4.73413Z" fill="white" stroke="white" stroke-width="0.559211" stroke-miterlimit="10"/>
</g>
</g>
<defs>
<clipPath id="clip0_27_43">
<rect width="141" height="30" fill="white"/>
</clipPath>
</defs>
</svg>
