<svg width="13" height="16" viewBox="0 0 13 16" fill="none" xmlns="http://www.w3.org/2000/svg">
<path d="M6.5 3.43944C4.83909 3.43944 3.48781 4.77197 3.48781 6.40984C3.48781 8.04772 4.83909 9.38025 6.5 9.38025C8.16091 9.38025 9.51219 8.04772 9.51219 6.40984C9.51219 4.77197 8.16094 3.43944 6.5 3.43944ZM6.5 8.12956C5.53841 8.12956 4.75609 7.35809 4.75609 6.40984C4.75609 5.46159 5.53841 4.69012 6.5 4.69012C7.46159 4.69012 8.24391 5.46159 8.24391 6.40984C8.24391 7.35809 7.46159 8.12956 6.5 8.12956Z" fill="#2764E0"/>
<path d="M6.5 0C2.91588 0 0 2.87547 0 6.40984V6.58703C0 8.37453 1.03923 10.4575 3.08891 12.7781C4.57477 14.4603 6.03987 15.6333 6.10147 15.6824L6.5 16L6.89853 15.6825C6.96016 15.6333 8.42527 14.4603 9.91109 12.7781C11.9607 10.4575 13 8.37456 13 6.58706V6.40987C13 2.87547 10.0841 0 6.5 0ZM11.7317 6.58706C11.7317 9.60784 7.78476 13.2646 6.5 14.3746C5.21489 13.2642 1.26828 9.60763 1.26828 6.58706V6.40987C1.26828 3.56512 3.61524 1.25072 6.5 1.25072C9.38476 1.25072 11.7317 3.56512 11.7317 6.40987V6.58706Z" fill="#2764E0"/>
</svg>
