<svg width="134" height="36" viewBox="0 0 134 36" fill="none" xmlns="http://www.w3.org/2000/svg">
<path fill-rule="evenodd" clip-rule="evenodd" d="M99.3847 23.6817V24.7944H102.303V16.7201C102.303 14.9037 101.803 13.4892 100.742 12.5489C99.6955 11.6212 98.2314 11.1819 96.4004 11.1819C95.34 11.1819 94.319 11.3313 93.339 11.6312C92.4046 11.9064 91.5882 12.3092 90.8953 12.8437L92.2402 15.1729C92.7072 14.7869 93.287 14.4762 93.9867 14.2461L93.9899 14.2451L93.9931 14.2439C94.6914 13.999 95.4035 13.8769 96.1311 13.8769C97.2419 13.8769 98.0048 14.1398 98.4873 14.6022L98.4909 14.6057L98.4946 14.609C98.993 15.0598 99.2623 15.7136 99.2623 16.6235V16.7373H95.8863C94.5722 16.7373 93.4906 16.9088 92.6624 17.2738L92.6599 17.2749C91.8615 17.6346 91.2536 18.1265 90.8665 18.7629L90.8646 18.7661L90.8628 18.7693C90.504 19.3888 90.3267 20.0771 90.3267 20.8262C90.3267 21.6171 90.5417 22.337 90.9733 22.9759L90.9759 22.9797C91.4084 23.6019 92.016 24.0822 92.7828 24.4261L92.7855 24.4272C93.5715 24.7719 94.4689 24.9394 95.4701 24.9394C96.7015 24.9394 97.7511 24.7149 98.5998 24.2439L98.6022 24.2426L98.6045 24.2412C98.8924 24.0755 99.1529 23.8891 99.3847 23.6817ZM97.9904 21.9283L97.9872 21.9301C97.3957 22.2803 96.6914 22.4617 95.8618 22.4617C95.0088 22.4617 94.3892 22.2855 93.9631 21.9749C93.5432 21.653 93.3427 21.2472 93.3427 20.7296C93.3427 20.2797 93.5056 19.9025 93.8469 19.5793C93.992 19.4418 94.229 19.3176 94.5911 19.2292C94.9512 19.1413 95.4132 19.0942 95.9842 19.0942H99.2623V20.4689C98.9946 21.1099 98.5721 21.5923 97.9904 21.9283Z" fill="#333333"/>
<path d="M45 24.7944V11.3027H47.966L52.8711 19.6232L57.9053 11.3027H60.6483V24.7944H57.8282V16.3323L53.5191 23.3452H52.1033L47.8446 16.3098V24.7944H45Z" fill="#333333"/>
<path d="M77.1762 14.0219H81.9256V24.7944H84.9661V14.0219H89.7154V11.3027H77.1762V14.0219Z" fill="#333333"/>
<path d="M103.882 24.9576V22.0778L104.23 22.1269C104.347 22.1433 104.456 22.1598 104.556 22.1764C104.64 22.1901 104.71 22.196 104.77 22.196C105.205 22.196 105.509 22.0534 105.728 21.7894L105.731 21.7859L105.734 21.7824C106 21.479 106.207 21.0656 106.344 20.5256C106.486 19.9503 106.59 19.3001 106.654 18.5738C106.719 17.8381 106.767 17.1024 106.8 16.3667L107.035 11.3027H117.674V24.7944H114.633V14.0219H109.716L109.595 16.5418L109.595 16.5432C109.545 17.6787 109.455 18.7432 109.323 19.7365C109.19 20.737 108.981 21.6237 108.693 22.3933C108.417 23.1736 108.023 23.8059 107.498 24.271C106.966 24.7571 106.282 24.9877 105.48 24.9877C105.334 24.9877 104.531 24.9775 103.882 24.9576Z" fill="#333333"/>
<path fill-rule="evenodd" clip-rule="evenodd" d="M71.4961 21.827C70.9425 22.111 70.3214 22.2553 69.6543 22.2553C67.8147 22.2553 66.2573 21.0415 65.6989 19.4021C65.6801 19.347 65.6624 19.2914 65.6457 19.2353H76.2957C76.3662 18.8153 76.4074 18.3839 76.4074 17.9295C76.4074 15.8298 75.6433 14.0581 74.3151 12.8558C73.1514 11.8031 71.5585 11.1819 69.6543 11.1819C66.8979 11.1819 64.5176 12.735 63.3598 14.99C62.8778 15.9219 62.6016 16.9688 62.6016 18.0848C62.6016 19.2008 62.8778 20.2477 63.3597 21.1796C64.5175 23.4345 66.8979 24.9877 69.6543 24.9877C70.4975 24.9877 71.2797 24.8534 71.9951 24.607C73.6528 24.0832 74.7125 23.0939 75.5462 21.7838L73.072 20.3746C72.683 20.9966 72.0915 21.4678 71.4959 21.8252L71.4961 21.827ZM73.457 16.6409C73.2865 15.7896 72.787 15.0705 72.0465 14.5815C71.4117 14.1673 70.6064 13.9143 69.6543 13.9143C67.8624 13.9143 66.3381 15.066 65.7443 16.6409H73.457Z" fill="#333333"/>
<path d="M119.551 22.0778V24.9577C120.201 24.9776 121.003 24.9878 121.149 24.9878C121.952 24.9878 122.635 24.7572 123.167 24.2712C123.692 23.806 124.087 23.1737 124.362 22.3935C124.65 21.6238 124.859 20.7371 124.992 19.7366C125.124 18.7433 125.215 17.6788 125.264 16.5433L125.264 16.5419L125.386 14.022H130.303V24.7946H133.343V11.3027H122.705L122.469 16.366C122.437 17.1016 122.388 17.8382 122.323 18.5739C122.259 19.3002 122.156 19.9504 122.014 20.5257C121.877 21.0658 121.669 21.4791 121.404 21.7825L121.401 21.786L121.398 21.7895C121.179 22.0535 120.874 22.1961 120.439 22.1961C120.38 22.1961 120.309 22.1902 120.226 22.1765C120.125 22.1599 120.016 22.1434 119.9 22.127L119.551 22.0778Z" fill="#333333"/>
<path d="M30.7336 5.27208C37.278 11.8235 37.723 22.1686 32.0687 29.236L32.0535 29.2209C31.2214 30.2668 30.2754 31.2179 29.2343 32.0554L29.2433 32.0645C27.8887 33.1506 26.4135 34.0119 24.8676 34.6484C23.3335 35.2857 21.6923 35.7166 19.9784 35.9062V35.8935C18.6507 36.0383 17.3099 36.0354 15.9827 35.8848V35.9062C6.99254 34.9113 0 27.2812 0 18.0161C0 10.4958 4.60681 4.05267 11.1494 1.36059C17.6643 -1.33198 25.4391 -0.0281517 30.7336 5.27208Z" fill="#DD0858"/>
<path d="M36 18C36 14.4399 34.9443 10.9598 32.9665 7.99974C30.9886 5.03965 28.1774 2.73255 24.8883 1.37017C21.5992 0.007791 17.98 -0.348669 14.4884 0.345865C10.9967 1.0404 7.78942 2.75473 5.27208 5.27208C2.75473 7.78942 1.0404 10.9967 0.345865 14.4884C-0.348669 17.98 0.00779105 21.5992 1.37017 24.8883C2.73255 28.1774 5.03965 30.9886 7.99974 32.9665C10.9598 34.9443 14.4399 36 18 36V32.6906C15.0945 32.6906 12.2542 31.829 9.83833 30.2148C7.42246 28.6006 5.53953 26.3062 4.42763 23.6219C3.31573 20.9375 3.02481 17.9837 3.59165 15.134C4.15849 12.2843 5.55764 9.66668 7.61216 7.61216C9.66668 5.55764 12.2843 4.15849 15.134 3.59165C17.9837 3.02481 20.9375 3.31573 23.6219 4.42763C26.3062 5.53953 28.6006 7.42246 30.2148 9.83833C31.829 12.2542 32.6906 15.0945 32.6906 18H36Z" fill="#4FB013"/>
<path d="M36 18C36 13.2261 34.1036 8.64773 30.7279 5.27208C27.3523 1.89642 22.7739 3.60419e-07 18 0C13.2261 -3.60419e-07 8.64773 1.89642 5.27208 5.27208C1.89642 8.64773 7.20839e-07 13.2261 0 18H3.30096C3.30096 14.1016 4.84961 10.3628 7.60621 7.60621C10.3628 4.8496 14.1016 3.30096 18 3.30096C21.8984 3.30096 25.6372 4.84961 28.3938 7.60621C31.1504 10.3628 32.699 14.1016 32.699 18H36Z" fill="#C3D216"/>
<path d="M36 18C36 15.6362 35.5344 13.2956 34.6298 11.1117C33.7252 8.92784 32.3994 6.94353 30.7279 5.27208C29.0565 3.60062 27.0722 2.27475 24.8883 1.37017C22.7044 0.465584 20.3638 -1.03325e-07 18 0V3.30857C19.9293 3.30857 21.8397 3.68857 23.6222 4.42689C25.4046 5.1652 27.0242 6.24736 28.3884 7.61159C29.7526 8.97582 30.8348 10.5954 31.5731 12.3778C32.3114 14.1603 32.6914 16.0707 32.6914 18H36Z" fill="#6B61E3"/>
<path fill-rule="evenodd" clip-rule="evenodd" d="M20.8852 23.4373C20.0833 23.8488 19.1834 24.0578 18.2171 24.0578C15.5521 24.0578 13.2959 22.2994 12.487 19.9244C12.4598 19.8446 12.4341 19.764 12.41 19.6828H27.8382C27.9404 19.0744 28 18.4494 28 17.7911C28 14.7495 26.8932 12.1828 24.9689 10.4411C23.2831 8.91611 20.9757 8.01611 18.2171 8.01611C14.2239 8.01611 10.7757 10.2661 9.0984 13.5328C8.40024 14.8828 8 16.3994 8 18.0161C8 19.6328 8.40016 21.1494 9.09833 22.4994C10.7756 25.7661 14.2239 28.0161 18.2171 28.0161C19.4386 28.0161 20.5717 27.8217 21.6081 27.4646C24.0096 26.7058 25.5447 25.2727 26.7524 23.3748L23.1682 21.3333C22.6046 22.2343 21.7478 22.917 20.885 23.4347L20.8852 23.4373ZM23.7259 15.9244C23.479 14.6911 22.7553 13.6494 21.6825 12.941C20.763 12.341 19.5964 11.9744 18.2171 11.9744C15.6212 11.9744 13.4131 13.6428 12.5528 15.9244H23.7259Z" fill="white"/>
</svg>
