<svg width="18" height="17" viewBox="0 0 18 17" fill="none" xmlns="http://www.w3.org/2000/svg">
<path fill-rule="evenodd" clip-rule="evenodd" d="M10.8162 15.8712C10.8162 15.2477 10.3118 14.7423 9.6897 14.7423H8.3103C8.01155 14.7423 7.72502 14.8613 7.51377 15.0729C7.30252 15.2846 7.18383 15.5718 7.18383 15.8712C7.18383 16.4946 7.68818 17 8.3103 17H9.6897C10.3118 17 10.8162 16.4946 10.8162 15.8712ZM2.36816 12.9603C2.55632 12.9747 2.78395 12.983 3.01261 12.9696C3.13443 13.5887 3.43705 14.1628 3.88877 14.6156C4.48847 15.2165 5.30181 15.5541 6.14988 15.5541H6.5797C6.56075 15.658 6.55102 15.7641 6.55102 15.8712C6.55102 15.9794 6.56075 16.0854 6.57942 16.1882H6.14988C5.13397 16.1882 4.15965 15.7838 3.4413 15.064C2.86822 14.4896 2.49546 13.7521 2.36816 12.9603ZM2.04627 12.2856C1.54666 12.2012 1.08176 11.9632 0.71884 11.5994C0.258574 11.1382 0 10.5126 0 9.86034V8.36155C0 7.70926 0.258574 7.08368 0.71884 6.62245C1.17911 6.16121 1.80337 5.90206 2.45429 5.90206H2.61766C2.8788 2.59903 5.63653 0 9 0C12.3635 0 15.1212 2.59903 15.3823 5.90206H15.5457C16.1966 5.90206 16.8209 6.16121 17.2812 6.62245C17.7414 7.08368 18 7.70926 18 8.36155V9.86034C18 10.5126 17.7414 11.1382 17.2812 11.5994C16.8209 12.0607 16.1966 12.3198 15.5457 12.3198H14.8215C14.5211 12.3198 14.2776 12.0758 14.2776 11.7748V6.41603C14.2776 3.49518 11.9147 1.12736 9 1.12736C6.08527 1.12736 3.72241 3.49518 3.72241 6.41603V11.7748C3.72241 11.9873 3.60102 12.1715 3.4239 12.2613C2.93636 12.4309 2.18025 12.3082 2.04627 12.2856Z" fill="white"/>
</svg>
